<?xml version="1.0" encoding="UTF-8"?>
<!DOCTYPE svg PUBLIC "-//W3C//DTD SVG 1.1//EN" "http://www.w3.org/Graphics/SVG/1.1/DTD/svg11.dtd">
<svg xmlns="http://www.w3.org/2000/svg" version="1.1" width="1248px" height="702px" style="shape-rendering:geometricPrecision; text-rendering:geometricPrecision; image-rendering:optimizeQuality; fill-rule:evenodd; clip-rule:evenodd" xmlns:xlink="http://www.w3.org/1999/xlink">
<g><path style="opacity:0.008" fill="#1d1d1d" d="M 1227.5,7.5 C 1226.51,7.32842 1225.84,7.66175 1225.5,8.5C 1224.12,7.69775 1224.28,7.03108 1226,6.5C 1226.76,6.56993 1227.26,6.90326 1227.5,7.5 Z"/></g>
<g><path style="opacity:0.061" fill="#2a2a2a" d="M 1225.5,8.5 C 1227.05,8.82124 1227.71,9.82124 1227.5,11.5C 1226.6,10.7095 1225.93,9.70951 1225.5,8.5 Z"/></g>
<g><path style="opacity:0.808" fill="#797979" d="M 1225.5,8.5 C 1225.84,7.66175 1226.51,7.32842 1227.5,7.5C 1228.71,8.23411 1230.04,8.56745 1231.5,8.5C 1231.66,12.0348 1230.33,13.0348 1227.5,11.5C 1227.71,9.82124 1227.05,8.82124 1225.5,8.5 Z"/></g>
<g><path style="opacity:0.459" fill="#727272" d="M 1234.5,8.5 C 1235.59,8.61998 1236.25,9.28665 1236.5,10.5C 1236.17,11.1667 1235.83,11.8333 1235.5,12.5C 1234.57,11.3112 1234.24,9.97782 1234.5,8.5 Z"/></g>
<g><path style="opacity:0.055" fill="#232323" d="M 1230.5,18.5 C 1229.5,15.8333 1228.5,15.8333 1227.5,18.5C 1227.17,18.5 1226.83,18.5 1226.5,18.5C 1226.5,17.5 1226.5,16.5 1226.5,15.5C 1228.17,15.5 1229.83,15.5 1231.5,15.5C 1231.74,16.791 1231.4,17.791 1230.5,18.5 Z"/></g>
<g><path style="opacity:0.925" fill="#c1c1c1" d="M 1230.5,18.5 C 1229.5,18.5 1228.5,18.5 1227.5,18.5C 1228.5,15.8333 1229.5,15.8333 1230.5,18.5 Z"/></g>
<g><path style="opacity:0.506" fill="#767676" d="M 1234.5,15.5 C 1235.59,15.62 1236.25,16.2867 1236.5,17.5C 1236.17,18.1667 1235.83,18.8333 1235.5,19.5C 1234.57,18.3112 1234.24,16.9778 1234.5,15.5 Z"/></g>
<g><path style="opacity:0.6" fill="#5b5b5b" d="M 1226.5,18.5 C 1226.83,18.5 1227.17,18.5 1227.5,18.5C 1228.5,18.5 1229.5,18.5 1230.5,18.5C 1229.23,19.4793 1227.9,20.4793 1226.5,21.5C 1223.88,20.4657 1223.88,19.4657 1226.5,18.5 Z"/></g>
<g><path style="opacity:0.996" fill="#545f5b" d="M 650.5,28.5 C 655.269,29.889 660.269,30.5557 665.5,30.5C 694.195,33.7756 721.862,40.7756 748.5,51.5C 748.585,52.9953 747.919,53.9953 746.5,54.5C 743.014,53.205 739.514,53.205 736,54.5C 730.461,52.9666 725.294,51.1333 720.5,49C 715.5,48.2208 710.5,47.8875 705.5,48C 707.167,48.3333 708.833,48.6667 710.5,49C 705.726,49.5135 701.226,48.6801 697,46.5C 694.846,47.2521 692.68,47.4188 690.5,47C 691.5,46.6667 692.5,46.3333 693.5,46C 679.869,44.3909 666.203,43.2243 652.5,42.5C 641.349,44.5466 630.015,45.0466 618.5,44C 629.278,43.9288 639.944,42.9288 650.5,41C 649.5,40.6667 648.5,40.3333 647.5,40C 634.5,39.3333 621.5,39.3333 608.5,40C 608.833,40.3333 609.167,40.6667 609.5,41C 601.587,41.8141 593.754,41.6474 586,40.5C 583.441,43.3492 580.274,44.1825 576.5,43C 577.5,42.1667 578.5,41.3333 579.5,40.5C 577.667,40.1667 575.833,39.8333 574,39.5C 555.504,41.6306 537.337,43.6306 519.5,45.5C 523.044,44.2105 526.377,42.5439 529.5,40.5C 541.614,37.3093 553.947,34.6427 566.5,32.5C 570.078,32.4512 573.411,31.7846 576.5,30.5C 601.108,26.8843 625.774,26.2176 650.5,28.5 Z"/></g>
<g><path style="opacity:0.137" fill="#1a1d1c" d="M 650.5,28.5 C 655.731,28.4443 660.731,29.111 665.5,30.5C 660.269,30.5557 655.269,29.889 650.5,28.5 Z"/></g>
<g><path style="opacity:0.51" fill="#232726" d="M 576.5,30.5 C 573.411,31.7846 570.078,32.4512 566.5,32.5C 569.544,30.9886 572.878,30.322 576.5,30.5 Z"/></g>
<g><path style="opacity:1" fill="#535e5e" d="M 748.5,51.5 C 757.122,54.5929 765.455,58.2596 773.5,62.5C 773.22,65.2724 773.887,67.7724 775.5,70C 781.447,71.3027 786.447,74.1361 790.5,78.5C 788.009,79.5407 788.009,80.3741 790.5,81C 789.737,81.9435 788.737,82.4435 787.5,82.5C 774.366,80.1398 761.032,77.6398 747.5,75C 750.833,74.6667 754.167,74.3333 757.5,74C 753.133,72.9933 748.8,72.3266 744.5,72C 746.872,73.4705 746.872,74.6372 744.5,75.5C 739.538,74.4507 734.538,73.6174 729.5,73C 725.174,69.4517 720.507,67.785 715.5,68C 717.285,69.5929 717.452,71.0929 716,72.5C 713.254,70.2873 710.254,69.954 707,71.5C 698.204,69.9261 689.371,68.5928 680.5,67.5C 675.972,67.7391 671.305,67.9058 666.5,68C 667.641,68.7412 667.641,69.5745 666.5,70.5C 665.5,70.8333 664.5,71.1667 663.5,71.5C 660.944,70.4756 658.277,69.6423 655.5,69C 654.809,67.9326 654.309,66.7659 654,65.5C 650.929,67.768 647.596,68.1014 644,66.5C 641.446,67.7711 638.613,68.4377 635.5,68.5C 628.859,67.7355 622.359,67.4022 616,67.5C 614.5,67.6667 613,67.8333 611.5,68C 611.043,68.414 610.709,68.914 610.5,69.5C 613.785,70.3236 617.118,70.8236 620.5,71C 621.406,72.6995 621.739,74.5328 621.5,76.5C 615.141,76.6538 608.808,76.3205 602.5,75.5C 600.68,75.6493 599.18,76.3159 598,77.5C 598.504,73.5421 598.838,69.8754 599,66.5C 583.058,67.2119 567.058,67.8785 551,68.5C 549.284,68.2517 547.784,67.585 546.5,66.5C 544.371,70.13 542.038,73.63 539.5,77C 536.167,77.6667 532.833,77.6667 529.5,77C 532.206,74.6294 534.539,71.9628 536.5,69C 531.173,68.9776 526.006,69.811 521,71.5C 517.112,71.4624 516.612,70.2958 519.5,68C 516.173,67.4653 513.006,67.9653 510,69.5C 507.099,68.7842 504.099,68.7842 501,69.5C 498.657,68.1918 495.49,67.1918 491.5,66.5C 481.595,69.2057 472.095,72.8724 463,77.5C 462,76.1667 461,76.1667 460,77.5C 459.692,76.6919 459.192,76.0253 458.5,75.5C 458.264,76.2472 457.93,77.0805 457.5,78C 453.112,79.3469 448.779,80.8469 444.5,82.5C 443.614,81.675 443.281,80.675 443.5,79.5C 456.165,70.9838 469.498,63.4838 483.5,57C 493.861,52.3197 504.528,48.4864 515.5,45.5C 516.833,45.5 518.167,45.5 519.5,45.5C 537.337,43.6306 555.504,41.6306 574,39.5C 575.833,39.8333 577.667,40.1667 579.5,40.5C 578.5,41.3333 577.5,42.1667 576.5,43C 580.274,44.1825 583.441,43.3492 586,40.5C 593.754,41.6474 601.587,41.8141 609.5,41C 609.167,40.6667 608.833,40.3333 608.5,40C 621.5,39.3333 634.5,39.3333 647.5,40C 648.5,40.3333 649.5,40.6667 650.5,41C 639.944,42.9288 629.278,43.9288 618.5,44C 630.015,45.0466 641.349,44.5466 652.5,42.5C 666.203,43.2243 679.869,44.3909 693.5,46C 692.5,46.3333 691.5,46.6667 690.5,47C 692.68,47.4188 694.846,47.2521 697,46.5C 701.226,48.6801 705.726,49.5135 710.5,49C 708.833,48.6667 707.167,48.3333 705.5,48C 710.5,47.8875 715.5,48.2208 720.5,49C 725.294,51.1333 730.461,52.9666 736,54.5C 739.514,53.205 743.014,53.205 746.5,54.5C 747.919,53.9953 748.585,52.9953 748.5,51.5 Z"/></g>
<g><path style="opacity:0.718" fill="#2f3433" d="M 529.5,40.5 C 526.377,42.5439 523.044,44.2105 519.5,45.5C 518.167,45.5 516.833,45.5 515.5,45.5C 519.885,43.3199 524.552,41.6532 529.5,40.5 Z"/></g>
<g><path style="opacity:1" fill="#4d5b5e" d="M 773.5,62.5 C 778.253,64.0431 782.586,66.3765 786.5,69.5C 787.048,70.6885 787.381,71.8552 787.5,73C 791.167,75.3333 794.833,77.6667 798.5,80C 796.244,79.3853 793.911,79.0519 791.5,79C 793.651,80.7739 795.984,82.2739 798.5,83.5C 797.624,84.2508 796.624,84.7508 795.5,85C 797.833,86.6667 800.167,88.3333 802.5,90C 809.602,91.638 815.435,94.4714 820,98.5C 820.75,99.1258 821.584,99.6258 822.5,100C 819.11,100.246 815.777,100.746 812.5,101.5C 809.539,100.817 809.205,99.9836 811.5,99C 810.216,98.3162 809.049,98.4829 808,99.5C 806.031,97.6131 803.698,96.2798 801,95.5C 797.667,96.5 797.667,97.5 801,98.5C 801.688,99.3317 801.521,99.9984 800.5,100.5C 798.556,99.8108 796.556,99.3108 794.5,99C 795.167,98.6667 795.833,98.3333 796.5,98C 794.22,97.7883 792.22,96.9549 790.5,95.5C 789.914,95.7093 789.414,96.0426 789,96.5C 787.45,92.6358 785.95,92.6358 784.5,96.5C 781.45,94.797 778.45,94.6304 775.5,96C 776.956,96.4226 777.456,97.2559 777,98.5C 769.361,97.6115 761.695,96.6115 754,95.5C 749.186,97.1784 745.686,95.6784 743.5,91C 739.833,90.3333 736.167,90.3333 732.5,91C 733.5,92 734.5,93 735.5,94C 734.167,94.6667 734.167,95.3333 735.5,96C 725.694,95.3347 715.86,94.5014 706,93.5C 691.532,95.0091 677.199,94.3424 663,91.5C 662.25,92.1258 661.416,92.6258 660.5,93C 652.167,93.6667 643.833,93.6667 635.5,93C 634.956,92.2828 634.289,91.7828 633.5,91.5C 633.5,90.1667 633.5,88.8333 633.5,87.5C 616.417,88.1282 599.417,88.1282 582.5,87.5C 582.657,86.1266 582.49,84.7932 582,83.5C 578.255,84.297 574.421,84.797 570.5,85C 569.167,87.6667 567.833,90.3333 566.5,93C 564.047,93.7382 561.547,94.2382 559,94.5C 553.89,93.2315 548.723,92.2315 543.5,91.5C 543.833,90.8333 544.167,90.1667 544.5,89.5C 540.878,88.3414 537.211,88.1747 533.5,89C 532.643,89.6891 531.977,90.5224 531.5,91.5C 524.189,92.3313 516.856,92.8313 509.5,93C 512.5,93.3333 515.5,93.6667 518.5,94C 513.867,94.7903 509.533,95.2903 505.5,95.5C 498.529,95.2276 491.696,95.8943 485,97.5C 483.077,96.6839 481.077,96.0172 479,95.5C 470.805,98.1503 462.472,98.8169 454,97.5C 449.775,99.0252 445.442,100.025 441,100.5C 439.657,99.7865 438.324,100.12 437,101.5C 436.586,101.043 436.086,100.709 435.5,100.5C 429.978,101.543 424.478,102.543 419,103.5C 418.667,103.167 418.333,102.833 418,102.5C 414.161,103.824 410.661,105.824 407.5,108.5C 407.167,108.333 406.833,108.167 406.5,108C 407.71,106.961 408.71,105.794 409.5,104.5C 413.154,100.515 417.154,96.8484 421.5,93.5C 428.89,88.8119 436.223,84.1453 443.5,79.5C 443.281,80.675 443.614,81.675 444.5,82.5C 448.779,80.8469 453.112,79.3469 457.5,78C 457.93,77.0805 458.264,76.2472 458.5,75.5C 459.192,76.0253 459.692,76.6919 460,77.5C 461,76.1667 462,76.1667 463,77.5C 472.095,72.8724 481.595,69.2057 491.5,66.5C 495.49,67.1918 498.657,68.1918 501,69.5C 504.099,68.7842 507.099,68.7842 510,69.5C 513.006,67.9653 516.173,67.4653 519.5,68C 516.612,70.2958 517.112,71.4624 521,71.5C 526.006,69.811 531.173,68.9776 536.5,69C 534.539,71.9628 532.206,74.6294 529.5,77C 532.833,77.6667 536.167,77.6667 539.5,77C 542.038,73.63 544.371,70.13 546.5,66.5C 547.784,67.585 549.284,68.2517 551,68.5C 567.058,67.8785 583.058,67.2119 599,66.5C 598.838,69.8754 598.504,73.5421 598,77.5C 599.18,76.3159 600.68,75.6493 602.5,75.5C 608.808,76.3205 615.141,76.6538 621.5,76.5C 621.739,74.5328 621.406,72.6995 620.5,71C 617.118,70.8236 613.785,70.3236 610.5,69.5C 610.709,68.914 611.043,68.414 611.5,68C 613,67.8333 614.5,67.6667 616,67.5C 622.359,67.4022 628.859,67.7355 635.5,68.5C 638.613,68.4377 641.446,67.7711 644,66.5C 647.596,68.1014 650.929,67.768 654,65.5C 654.309,66.7659 654.809,67.9326 655.5,69C 658.277,69.6423 660.944,70.4756 663.5,71.5C 664.5,71.1667 665.5,70.8333 666.5,70.5C 667.641,69.5745 667.641,68.7412 666.5,68C 671.305,67.9058 675.972,67.7391 680.5,67.5C 689.371,68.5928 698.204,69.9261 707,71.5C 710.254,69.954 713.254,70.2873 716,72.5C 717.452,71.0929 717.285,69.5929 715.5,68C 720.507,67.785 725.174,69.4517 729.5,73C 734.538,73.6174 739.538,74.4507 744.5,75.5C 746.872,74.6372 746.872,73.4705 744.5,72C 748.8,72.3266 753.133,72.9933 757.5,74C 754.167,74.3333 750.833,74.6667 747.5,75C 761.032,77.6398 774.366,80.1398 787.5,82.5C 788.737,82.4435 789.737,81.9435 790.5,81C 788.009,80.3741 788.009,79.5407 790.5,78.5C 786.447,74.1361 781.447,71.3027 775.5,70C 773.887,67.7724 773.22,65.2724 773.5,62.5 Z"/></g>
<g><path style="opacity:1" fill="#47595c" d="M 633.5,91.5 C 633.594,94.0685 634.928,95.5685 637.5,96C 645.499,96.9757 653.499,97.809 661.5,98.5C 661.231,96.5714 661.731,94.9047 663,93.5C 666.256,94.3483 669.589,95.015 673,95.5C 675.227,97.3806 677.727,98.8806 680.5,100C 687.833,100.333 695.167,100.667 702.5,101C 704.125,101.853 704.458,102.853 703.5,104C 692.716,103.524 681.716,104.024 670.5,105.5C 669.554,105.013 668.554,104.68 667.5,104.5C 661.844,105.573 656.177,106.573 650.5,107.5C 649.167,108.833 649.167,110.167 650.5,111.5C 645.544,112.494 640.544,112.827 635.5,112.5C 635.286,110.856 635.62,109.356 636.5,108C 635.833,107.667 635.167,107.333 634.5,107C 628.833,106.667 623.167,106.333 617.5,106C 623.216,105.718 628.883,105.052 634.5,104C 608.502,104.103 582.668,103.936 557,103.5C 538.844,105.74 520.677,105.907 502.5,104C 504.167,103.667 505.833,103.333 507.5,103C 506.833,102.667 506.167,102.333 505.5,102C 512.167,101.667 518.833,101.333 525.5,101C 526.167,100.333 526.833,99.6667 527.5,99C 519.833,98.6667 512.167,98.3333 504.5,98C 508.5,97.6667 512.5,97.3333 516.5,97C 512.644,96.8227 508.977,96.3227 505.5,95.5C 509.533,95.2903 513.867,94.7903 518.5,94C 515.5,93.6667 512.5,93.3333 509.5,93C 516.856,92.8313 524.189,92.3313 531.5,91.5C 531.977,90.5224 532.643,89.6891 533.5,89C 537.211,88.1747 540.878,88.3414 544.5,89.5C 544.167,90.1667 543.833,90.8333 543.5,91.5C 548.723,92.2315 553.89,93.2315 559,94.5C 561.547,94.2382 564.047,93.7382 566.5,93C 567.833,90.3333 569.167,87.6667 570.5,85C 574.421,84.797 578.255,84.297 582,83.5C 582.49,84.7932 582.657,86.1266 582.5,87.5C 599.417,88.1282 616.417,88.1282 633.5,87.5C 633.5,88.8333 633.5,90.1667 633.5,91.5 Z"/></g>
<g><path style="opacity:1" fill="#46585f" d="M 786.5,69.5 C 806.828,80.1695 825.495,93.1695 842.5,108.5C 841.737,109.268 840.737,109.768 839.5,110C 841.599,112.409 843.266,115.076 844.5,118C 843.464,119.617 842.297,119.784 841,118.5C 840.349,120.235 840.515,121.902 841.5,123.5C 843.193,125.027 845.027,126.36 847,127.5C 847.483,128.448 847.649,129.448 847.5,130.5C 856.092,131.379 863.258,135.046 869,141.5C 869.483,142.448 869.649,143.448 869.5,144.5C 864.585,143.024 860.085,140.691 856,137.5C 855.885,139.107 856.385,140.607 857.5,142C 857.167,142.5 856.833,143 856.5,143.5C 849.532,140.343 842.365,137.677 835,135.5C 834.735,137.163 835.235,138.663 836.5,140C 833.214,139.886 830.047,139.053 827,137.5C 826.586,137.957 826.086,138.291 825.5,138.5C 819.613,137.86 819.28,136.693 824.5,135C 823.088,133.209 821.255,132.042 819,131.5C 817.887,132.711 816.72,132.711 815.5,131.5C 814.269,132.651 814.269,133.817 815.5,135C 814,135.167 812.5,135.333 811,135.5C 805.664,133.833 800.164,132.999 794.5,133C 795.26,134.441 795.926,135.941 796.5,137.5C 792.786,138.745 789.12,138.579 785.5,137C 783.711,134.721 781.711,132.721 779.5,131C 771.867,130.89 764.367,130.057 757,128.5C 757.351,130.886 757.185,133.219 756.5,135.5C 752.966,134.869 749.466,134.202 746,133.5C 745.667,134.167 745.333,134.833 745,135.5C 744.857,131.023 742.691,128.189 738.5,127C 733.646,126.38 728.813,126.547 724,127.5C 720.172,126.959 716.339,126.459 712.5,126C 711.455,124.474 709.955,123.641 708,123.5C 694.502,122 681.002,120.5 667.5,119C 666.257,117.846 665.257,116.512 664.5,115C 660.445,114.768 656.445,114.268 652.5,113.5C 652.006,116.33 650.339,117.663 647.5,117.5C 625.756,114.242 604.089,113.909 582.5,116.5C 578.095,116.468 574.095,115.468 570.5,113.5C 568.127,114.337 565.793,114.671 563.5,114.5C 561.45,113.923 560.45,112.59 560.5,110.5C 556.486,110.334 552.486,110.501 548.5,111C 547.833,112.333 546.833,113.333 545.5,114C 540.813,114.081 536.313,114.915 532,116.5C 511.129,116.498 490.129,118.498 469,122.5C 467.174,121.99 467.007,121.156 468.5,120C 465.518,119.502 462.518,119.335 459.5,119.5C 459.5,118.5 459.5,117.5 459.5,116.5C 454.674,116.084 450.674,117.584 447.5,121C 448.167,121.333 448.833,121.667 449.5,122C 438.2,124.436 427.034,127.269 416,130.5C 416.957,128.806 418.123,126.973 419.5,125C 417.5,124.333 415.5,124.333 413.5,125C 411.833,126.667 410.167,128.333 408.5,130C 399.815,131.004 390.648,133.504 381,137.5C 380.5,137.333 380,137.167 379.5,137C 381.477,134.957 382.477,132.457 382.5,129.5C 384.833,126.5 387.5,123.833 390.5,121.5C 392.833,119.833 394.833,117.833 396.5,115.5C 400.241,111.089 404.574,107.422 409.5,104.5C 408.71,105.794 407.71,106.961 406.5,108C 406.833,108.167 407.167,108.333 407.5,108.5C 410.661,105.824 414.161,103.824 418,102.5C 418.333,102.833 418.667,103.167 419,103.5C 424.478,102.543 429.978,101.543 435.5,100.5C 436.086,100.709 436.586,101.043 437,101.5C 438.324,100.12 439.657,99.7865 441,100.5C 445.442,100.025 449.775,99.0252 454,97.5C 462.472,98.8169 470.805,98.1503 479,95.5C 481.077,96.0172 483.077,96.6839 485,97.5C 491.696,95.8943 498.529,95.2276 505.5,95.5C 508.977,96.3227 512.644,96.8227 516.5,97C 512.5,97.3333 508.5,97.6667 504.5,98C 512.167,98.3333 519.833,98.6667 527.5,99C 526.833,99.6667 526.167,100.333 525.5,101C 518.833,101.333 512.167,101.667 505.5,102C 506.167,102.333 506.833,102.667 507.5,103C 505.833,103.333 504.167,103.667 502.5,104C 520.677,105.907 538.844,105.74 557,103.5C 582.668,103.936 608.502,104.103 634.5,104C 628.883,105.052 623.216,105.718 617.5,106C 623.167,106.333 628.833,106.667 634.5,107C 635.167,107.333 635.833,107.667 636.5,108C 635.62,109.356 635.286,110.856 635.5,112.5C 640.544,112.827 645.544,112.494 650.5,111.5C 649.167,110.167 649.167,108.833 650.5,107.5C 656.177,106.573 661.844,105.573 667.5,104.5C 668.554,104.68 669.554,105.013 670.5,105.5C 681.716,104.024 692.716,103.524 703.5,104C 704.458,102.853 704.125,101.853 702.5,101C 695.167,100.667 687.833,100.333 680.5,100C 677.727,98.8806 675.227,97.3806 673,95.5C 669.589,95.015 666.256,94.3483 663,93.5C 661.731,94.9047 661.231,96.5714 661.5,98.5C 653.499,97.809 645.499,96.9757 637.5,96C 634.928,95.5685 633.594,94.0685 633.5,91.5C 634.289,91.7828 634.956,92.2828 635.5,93C 643.833,93.6667 652.167,93.6667 660.5,93C 661.416,92.6258 662.25,92.1258 663,91.5C 677.199,94.3424 691.532,95.0091 706,93.5C 715.86,94.5014 725.694,95.3347 735.5,96C 734.167,95.3333 734.167,94.6667 735.5,94C 734.5,93 733.5,92 732.5,91C 736.167,90.3333 739.833,90.3333 743.5,91C 745.686,95.6784 749.186,97.1784 754,95.5C 761.695,96.6115 769.361,97.6115 777,98.5C 777.456,97.2559 776.956,96.4226 775.5,96C 778.45,94.6304 781.45,94.797 784.5,96.5C 785.95,92.6358 787.45,92.6358 789,96.5C 789.414,96.0426 789.914,95.7093 790.5,95.5C 792.22,96.9549 794.22,97.7883 796.5,98C 795.833,98.3333 795.167,98.6667 794.5,99C 796.556,99.3108 798.556,99.8108 800.5,100.5C 801.521,99.9984 801.688,99.3317 801,98.5C 797.667,97.5 797.667,96.5 801,95.5C 803.698,96.2798 806.031,97.6131 808,99.5C 809.049,98.4829 810.216,98.3162 811.5,99C 809.205,99.9836 809.539,100.817 812.5,101.5C 815.777,100.746 819.11,100.246 822.5,100C 821.584,99.6258 820.75,99.1258 820,98.5C 815.435,94.4714 809.602,91.638 802.5,90C 800.167,88.3333 797.833,86.6667 795.5,85C 796.624,84.7508 797.624,84.2508 798.5,83.5C 795.984,82.2739 793.651,80.7739 791.5,79C 793.911,79.0519 796.244,79.3853 798.5,80C 794.833,77.6667 791.167,75.3333 787.5,73C 787.381,71.8552 787.048,70.6885 786.5,69.5 Z"/></g>
<g><path style="opacity:1" fill="#40545f" d="M 842.5,108.5 C 868.401,129.904 890.235,154.904 908,183.5C 911.426,189.409 914.592,195.409 917.5,201.5C 916.609,200.89 915.609,200.557 914.5,200.5C 910.926,196.364 908.092,191.697 906,186.5C 900.031,181.533 894.365,176.199 889,170.5C 888.833,170.833 888.667,171.167 888.5,171.5C 895.833,181.833 903.167,192.167 910.5,202.5C 910.167,203.167 909.833,203.833 909.5,204.5C 911.102,208.095 913.102,211.429 915.5,214.5C 915.167,215.167 914.833,215.833 914.5,216.5C 916.26,219.94 917.926,223.44 919.5,227C 918.796,231.592 919.796,235.925 922.5,240C 921.5,240.833 920.5,241.667 919.5,242.5C 921.632,245.896 922.965,249.563 923.5,253.5C 922.624,253.631 921.957,253.298 921.5,252.5C 918,245.5 914.5,238.5 911,231.5C 907.943,230.549 904.777,230.216 901.5,230.5C 902.248,228.416 902.248,226.416 901.5,224.5C 902.833,223.5 904.167,222.5 905.5,221.5C 900.982,216.149 895.982,211.315 890.5,207C 891.833,206 893.167,205 894.5,204C 880.11,189.863 862.943,181.03 843,177.5C 841.174,178.01 841.007,178.844 842.5,180C 845.167,180.333 847.833,180.667 850.5,181C 844.144,181.398 837.811,181.065 831.5,180C 830.277,176.777 827.944,175.111 824.5,175C 806.439,174.788 788.439,174.121 770.5,173C 773.368,173.861 775.702,175.528 777.5,178C 782.005,179.962 786.672,180.629 791.5,180C 790.663,178.989 790.33,177.822 790.5,176.5C 794.884,176.174 799.217,176.508 803.5,177.5C 804.5,178.833 805.5,180.167 806.5,181.5C 800.18,182.597 793.847,182.597 787.5,181.5C 783.436,181.779 779.436,182.446 775.5,183.5C 772.33,182.067 769.33,182.233 766.5,184C 774.073,185.408 781.407,187.242 788.5,189.5C 765.999,188.224 744.165,183.891 723,176.5C 722.667,176.833 722.333,177.167 722,177.5C 712.102,174.628 702.269,171.962 692.5,169.5C 696.182,169.335 699.848,169.501 703.5,170C 717.36,172.968 731.027,176.301 744.5,180C 741.648,178.409 738.648,177.076 735.5,176C 710.279,168.297 684.613,162.63 658.5,159C 676.735,159.863 694.735,162.53 712.5,167C 722.227,167.626 731.894,168.293 741.5,169C 737.495,166.578 733.162,164.911 728.5,164C 714.202,160.842 699.869,157.842 685.5,155C 699.855,154.741 714.188,154.075 728.5,153C 706.191,148.839 683.858,144.839 661.5,141C 677.834,140.36 694.168,139.693 710.5,139C 691.489,136.082 672.489,133.082 653.5,130C 653.457,127.5 653.123,125 652.5,122.5C 637.738,120.19 620.238,118.523 600,117.5C 591.168,118.018 582.334,118.518 573.5,119C 578.833,119.333 584.167,119.667 589.5,120C 589.167,120.333 588.833,120.667 588.5,121C 578.489,121.51 568.489,122.177 558.5,123C 557.833,124 557.167,125 556.5,126C 554.333,126.167 552.167,126.333 550,126.5C 543.511,124.485 536.677,123.319 529.5,123C 533.5,122.667 537.5,122.333 541.5,122C 534.491,120.996 527.491,120.329 520.5,120C 517.5,121 514.5,122 511.5,123C 514.544,123.359 514.878,124.026 512.5,125C 509.5,125.333 506.5,125.667 503.5,126C 511.521,126.168 519.521,126.668 527.5,127.5C 526.627,129.413 525.627,131.247 524.5,133C 515.975,133.987 507.475,135.154 499,136.5C 498.167,136.167 497.333,135.833 496.5,135.5C 497.5,132.833 498.5,130.167 499.5,127.5C 493.523,126.597 488.357,128.264 484,132.5C 482.746,138.752 478.913,141.252 472.5,140C 457.021,144.035 441.687,148.368 426.5,153C 426.167,153.333 425.833,153.667 425.5,154C 434.269,154.728 442.936,155.395 451.5,156C 441.179,160.053 430.512,162.553 419.5,163.5C 416.15,163.335 412.817,163.502 409.5,164C 403.089,167.149 396.422,169.482 389.5,171C 389.167,171.333 388.833,171.667 388.5,172C 390.788,172.822 393.122,173.489 395.5,174C 394.09,174.368 393.09,175.201 392.5,176.5C 396.746,177.75 401.079,178.583 405.5,179C 394.59,183.12 384.59,188.787 375.5,196C 377.935,196.853 380.269,197.853 382.5,199C 380.321,199.442 379.655,200.442 380.5,202C 383.232,202.413 385.899,203.08 388.5,204C 385.431,205.846 382.098,206.846 378.5,207C 373.5,207.333 368.5,207.667 363.5,208C 365.473,208.495 367.473,208.662 369.5,208.5C 368.438,209.575 368.438,210.575 369.5,211.5C 374.807,211.714 375.474,213.214 371.5,216C 382.101,218.528 382.101,220.028 371.5,220.5C 369.386,223.939 367.719,227.606 366.5,231.5C 363.553,232.321 360.553,232.821 357.5,233C 355.548,237.271 353.882,241.271 352.5,245C 349.24,245.784 346.073,245.617 343,244.5C 341.05,247.948 339.55,251.615 338.5,255.5C 340.585,257.596 342.918,259.429 345.5,261C 344.165,266.029 342.831,271.029 341.5,276C 343.833,277 346.167,278 348.5,279C 349.833,280 349.833,281 348.5,282C 349.91,282.368 350.91,283.201 351.5,284.5C 349.409,291.787 347.409,299.12 345.5,306.5C 345.529,308.029 346.196,309.196 347.5,310C 345.5,310.667 344.167,312 343.5,314C 345.579,315.64 347.912,316.806 350.5,317.5C 351.477,319.411 352.143,321.411 352.5,323.5C 347.427,323.868 344.594,321.534 344,316.5C 342.167,315.333 340.333,314.167 338.5,313C 340.167,312.667 341.833,312.333 343.5,312C 342.269,307.909 341.269,303.743 340.5,299.5C 344.172,298.955 343.838,298.622 339.5,298.5C 338.266,293.664 338.266,288.831 339.5,284C 338.831,282.153 337.497,280.986 335.5,280.5C 334.548,278.955 334.215,277.288 334.5,275.5C 331.044,274.301 327.711,272.801 324.5,271C 324.011,269.236 324.011,267.736 324.5,266.5C 324.414,265.504 324.748,264.671 325.5,264C 323.91,262.954 322.41,261.787 321,260.5C 320.28,258.888 320.446,257.388 321.5,256C 320.833,255.667 320.167,255.333 319.5,255C 321.096,250.624 322.429,246.124 323.5,241.5C 323.32,240.446 322.987,239.446 322.5,238.5C 323.247,238.264 324.08,237.93 325,237.5C 325.45,235.481 326.283,233.648 327.5,232C 326.366,230.984 326.699,230.317 328.5,230C 323.886,228.524 322.053,225.357 323,220.5C 323.333,221.5 323.667,222.5 324,223.5C 325.687,218.948 327.854,214.614 330.5,210.5C 329.923,208.45 328.59,207.45 326.5,207.5C 340.739,178.367 359.406,152.367 382.5,129.5C 382.477,132.457 381.477,134.957 379.5,137C 380,137.167 380.5,137.333 381,137.5C 390.648,133.504 399.815,131.004 408.5,130C 410.167,128.333 411.833,126.667 413.5,125C 415.5,124.333 417.5,124.333 419.5,125C 418.123,126.973 416.957,128.806 416,130.5C 427.034,127.269 438.2,124.436 449.5,122C 448.833,121.667 448.167,121.333 447.5,121C 450.674,117.584 454.674,116.084 459.5,116.5C 459.5,117.5 459.5,118.5 459.5,119.5C 462.518,119.335 465.518,119.502 468.5,120C 467.007,121.156 467.174,121.99 469,122.5C 490.129,118.498 511.129,116.498 532,116.5C 536.313,114.915 540.813,114.081 545.5,114C 546.833,113.333 547.833,112.333 548.5,111C 552.486,110.501 556.486,110.334 560.5,110.5C 560.45,112.59 561.45,113.923 563.5,114.5C 565.793,114.671 568.127,114.337 570.5,113.5C 574.095,115.468 578.095,116.468 582.5,116.5C 604.089,113.909 625.756,114.242 647.5,117.5C 650.339,117.663 652.006,116.33 652.5,113.5C 656.445,114.268 660.445,114.768 664.5,115C 665.257,116.512 666.257,117.846 667.5,119C 681.002,120.5 694.502,122 708,123.5C 709.955,123.641 711.455,124.474 712.5,126C 716.339,126.459 720.172,126.959 724,127.5C 728.813,126.547 733.646,126.38 738.5,127C 742.691,128.189 744.857,131.023 745,135.5C 745.333,134.833 745.667,134.167 746,133.5C 749.466,134.202 752.966,134.869 756.5,135.5C 757.185,133.219 757.351,130.886 757,128.5C 764.367,130.057 771.867,130.89 779.5,131C 781.711,132.721 783.711,134.721 785.5,137C 789.12,138.579 792.786,138.745 796.5,137.5C 795.926,135.941 795.26,134.441 794.5,133C 800.164,132.999 805.664,133.833 811,135.5C 812.5,135.333 814,135.167 815.5,135C 814.269,133.817 814.269,132.651 815.5,131.5C 816.72,132.711 817.887,132.711 819,131.5C 821.255,132.042 823.088,133.209 824.5,135C 819.28,136.693 819.613,137.86 825.5,138.5C 826.086,138.291 826.586,137.957 827,137.5C 830.047,139.053 833.214,139.886 836.5,140C 835.235,138.663 834.735,137.163 835,135.5C 842.365,137.677 849.532,140.343 856.5,143.5C 856.833,143 857.167,142.5 857.5,142C 856.385,140.607 855.885,139.107 856,137.5C 860.085,140.691 864.585,143.024 869.5,144.5C 869.649,143.448 869.483,142.448 869,141.5C 863.258,135.046 856.092,131.379 847.5,130.5C 847.649,129.448 847.483,128.448 847,127.5C 845.027,126.36 843.193,125.027 841.5,123.5C 840.515,121.902 840.349,120.235 841,118.5C 842.297,119.784 843.464,119.617 844.5,118C 843.266,115.076 841.599,112.409 839.5,110C 840.737,109.768 841.737,109.268 842.5,108.5 Z"/></g>
<g><path style="opacity:0.373" fill="#1b2022" d="M 396.5,115.5 C 394.833,117.833 392.833,119.833 390.5,121.5C 391.5,118.5 393.5,116.5 396.5,115.5 Z"/></g>
<g><path style="opacity:1" fill="#40535c" d="M 692.5,169.5 C 693.058,168.21 694.058,167.377 695.5,167C 628.158,153.267 560.658,152.1 493,163.5C 491.833,163.333 490.667,163.167 489.5,163C 505.723,159.938 522.056,157.605 538.5,156C 537.167,155.833 535.833,155.667 534.5,155.5C 514.335,157.639 494.168,159.639 474,161.5C 471.462,161.019 469.962,160.019 469.5,158.5C 461.049,160.029 452.716,162.029 444.5,164.5C 443.377,163.456 442.044,162.79 440.5,162.5C 433.982,163.101 427.482,163.767 421,164.5C 420.235,164.43 419.735,164.097 419.5,163.5C 430.512,162.553 441.179,160.053 451.5,156C 442.936,155.395 434.269,154.728 425.5,154C 425.833,153.667 426.167,153.333 426.5,153C 441.687,148.368 457.021,144.035 472.5,140C 478.913,141.252 482.746,138.752 484,132.5C 488.357,128.264 493.523,126.597 499.5,127.5C 498.5,130.167 497.5,132.833 496.5,135.5C 497.333,135.833 498.167,136.167 499,136.5C 507.475,135.154 515.975,133.987 524.5,133C 525.627,131.247 526.627,129.413 527.5,127.5C 519.521,126.668 511.521,126.168 503.5,126C 506.5,125.667 509.5,125.333 512.5,125C 514.878,124.026 514.544,123.359 511.5,123C 514.5,122 517.5,121 520.5,120C 527.491,120.329 534.491,120.996 541.5,122C 537.5,122.333 533.5,122.667 529.5,123C 536.677,123.319 543.511,124.485 550,126.5C 552.167,126.333 554.333,126.167 556.5,126C 557.167,125 557.833,124 558.5,123C 568.489,122.177 578.489,121.51 588.5,121C 588.833,120.667 589.167,120.333 589.5,120C 584.167,119.667 578.833,119.333 573.5,119C 582.334,118.518 591.168,118.018 600,117.5C 620.238,118.523 637.738,120.19 652.5,122.5C 653.123,125 653.457,127.5 653.5,130C 672.489,133.082 691.489,136.082 710.5,139C 694.168,139.693 677.834,140.36 661.5,141C 683.858,144.839 706.191,148.839 728.5,153C 714.188,154.075 699.855,154.741 685.5,155C 699.869,157.842 714.202,160.842 728.5,164C 733.162,164.911 737.495,166.578 741.5,169C 731.894,168.293 722.227,167.626 712.5,167C 694.735,162.53 676.735,159.863 658.5,159C 684.613,162.63 710.279,168.297 735.5,176C 738.648,177.076 741.648,178.409 744.5,180C 731.027,176.301 717.36,172.968 703.5,170C 699.848,169.501 696.182,169.335 692.5,169.5 Z"/></g>
<g><path style="opacity:1" fill="#3a4f5b" d="M 692.5,169.5 C 702.269,171.962 712.102,174.628 722,177.5C 722.333,177.167 722.667,176.833 723,176.5C 744.165,183.891 765.999,188.224 788.5,189.5C 802.981,189.637 817.481,189.637 832,189.5C 848.922,191.25 864.422,196.75 878.5,206C 876.122,206.511 873.788,207.178 871.5,208C 876.678,211.422 881.678,215.089 886.5,219C 883.578,219.417 880.911,220.417 878.5,222C 881.627,224.963 884.627,228.129 887.5,231.5C 887.291,232.086 886.957,232.586 886.5,233C 882.909,233.789 879.409,233.622 876,232.5C 873.202,234.591 870.035,235.924 866.5,236.5C 870.142,238.975 873.642,241.642 877,244.5C 879.459,242.95 880.126,240.95 879,238.5C 884.655,244.476 888.155,251.476 889.5,259.5C 891.527,259.662 893.527,259.495 895.5,259C 892.971,255.056 891.971,250.889 892.5,246.5C 895.614,244.938 898.447,245.271 901,247.5C 901.667,248.833 901.667,250.167 901,251.5C 899.954,249.91 898.787,248.41 897.5,247C 896.833,246.333 896.167,246.333 895.5,247C 899.02,251.062 902.02,255.395 904.5,260C 902.9,261.815 900.9,262.982 898.5,263.5C 897.738,264.628 897.071,265.795 896.5,267C 901.498,272.847 900.331,275.013 893,273.5C 891.276,273.955 889.776,274.788 888.5,276C 888.833,276.333 889.167,276.667 889.5,277C 886.673,278.623 883.673,279.79 880.5,280.5C 879.41,281.391 879.41,282.391 880.5,283.5C 876.905,284.984 873.238,286.317 869.5,287.5C 869.277,288.967 868.944,290.467 868.5,292C 862.481,293.062 856.481,294.229 850.5,295.5C 850.709,296.086 851.043,296.586 851.5,297C 846.425,301.287 841.258,305.453 836,309.5C 835.667,309.167 835.333,308.833 835,308.5C 830.419,309.56 826.086,311.227 822,313.5C 821.228,313.355 820.561,313.022 820,312.5C 816.636,313.739 813.136,314.406 809.5,314.5C 809.739,316.467 809.406,318.301 808.5,320C 805.741,320.202 802.908,320.036 800,319.5C 798.491,320.09 796.991,320.756 795.5,321.5C 789.47,322.192 783.47,323.025 777.5,324C 771.801,328.182 765.801,331.848 759.5,335C 752.601,335.311 745.767,336.144 739,337.5C 737.893,337.415 736.893,337.081 736,336.5C 734.442,338.359 732.609,339.859 730.5,341C 723.22,342.94 715.887,343.44 708.5,342.5C 653.533,346.228 598.533,346.395 543.5,343C 539.533,342.517 535.866,341.184 532.5,339C 527.948,338.204 523.448,337.371 519,336.5C 511.589,336.521 504.255,336.854 497,337.5C 494.176,336.946 491.343,336.446 488.5,336C 487.069,335.535 485.903,334.701 485,333.5C 482.421,328.008 479.588,322.675 476.5,317.5C 473.92,316.451 471.254,315.784 468.5,315.5C 468.915,318.368 467.915,320.535 465.5,322C 460.843,321.675 456.176,321.008 451.5,320C 448.672,313.17 445.672,306.336 442.5,299.5C 427.713,297.336 413.713,295.503 400.5,294C 402.761,293.761 404.761,293.594 406.5,293.5C 405.969,288.58 404.969,283.747 403.5,279C 403.585,277.893 403.919,276.893 404.5,276C 401.947,275.239 399.447,274.406 397,273.5C 396.333,276.167 395.667,276.167 395,273.5C 393.174,274.841 392.007,274.341 391.5,272C 393.907,269.908 393.907,267.908 391.5,266C 393.059,265.02 394.726,264.187 396.5,263.5C 395.263,262.719 394.263,261.719 393.5,260.5C 394.189,258.556 394.689,256.556 395,254.5C 396.667,253.833 398.333,253.167 400,252.5C 402.336,247.657 404.169,242.657 405.5,237.5C 398.113,236.66 390.779,235.493 383.5,234C 385.979,230.353 388.979,227.187 392.5,224.5C 394.396,223.534 396.396,223.201 398.5,223.5C 401.594,223.195 404.261,222.028 406.5,220C 404.122,219.026 404.456,218.359 407.5,218C 404.057,217.779 403.724,216.779 406.5,215C 402.886,214.055 399.219,213.388 395.5,213C 394.167,212.333 394.167,211.667 395.5,211C 397.392,210.027 399.392,209.36 401.5,209C 406.833,208.667 412.167,208.333 417.5,208C 418.833,207 420.167,206 421.5,205C 417.279,204.625 413.279,203.625 409.5,202C 410.5,201.167 411.5,200.333 412.5,199.5C 408.468,198.775 404.468,197.942 400.5,197C 414.506,190.988 428.506,184.988 442.5,179C 439.3,178.899 436.3,178.232 433.5,177C 436.702,176.453 439.702,175.453 442.5,174C 437.833,173.333 433.167,172.667 428.5,172C 430.949,171.275 433.283,170.275 435.5,169C 434.167,168.667 432.833,168.333 431.5,168C 439.767,169.542 448.1,169.875 456.5,169C 452.072,169.587 447.739,170.587 443.5,172C 445.298,173.505 447.132,173.672 449,172.5C 452.745,173.297 456.579,173.797 460.5,174C 457.911,175.197 455.244,176.197 452.5,177C 456.291,177.618 459.791,178.785 463,180.5C 463.309,179.234 463.809,178.067 464.5,177C 463.542,175.853 463.875,174.853 465.5,174C 461.728,172.611 461.728,171.611 465.5,171C 474.68,170.702 483.847,170.202 493,169.5C 494.764,169.544 496.431,169.878 498,170.5C 505.712,168.488 513.712,167.488 522,167.5C 524.833,167.667 527.667,167.833 530.5,168C 530.799,169.32 530.966,170.82 531,172.5C 532,171.167 533,171.167 534,172.5C 543.286,170.935 552.452,169.769 561.5,169C 553.147,168.832 544.813,168.332 536.5,167.5C 546.859,166.744 557.192,165.744 567.5,164.5C 572.459,164.252 577.293,164.585 582,165.5C 582.273,163.671 583.107,162.171 584.5,161C 590.167,160.333 595.833,160.333 601.5,161C 602.337,162.011 602.67,163.178 602.5,164.5C 619.912,165.615 637.579,167.115 655.5,169C 656.167,170.333 656.833,171.667 657.5,173C 661.986,173.026 666.486,173.859 671,175.5C 673.826,173.634 676.993,172.301 680.5,171.5C 681.696,171.846 681.696,172.346 680.5,173C 682.035,173.496 683.535,173.33 685,172.5C 686.285,172.95 687.452,173.617 688.5,174.5C 690.168,172.985 691.501,171.318 692.5,169.5 Z"/></g>
<g><path style="opacity:1" fill="#3c5360" d="M 923.5,253.5 C 924.431,255.033 925.098,256.7 925.5,258.5C 924.477,261.298 924.477,264.132 925.5,267C 925.318,269.343 924.318,271.176 922.5,272.5C 922.833,273.167 923.167,273.833 923.5,274.5C 921.833,275.833 920.167,277.167 918.5,278.5C 919.077,280.55 920.41,281.55 922.5,281.5C 921.868,284.341 921.868,287.341 922.5,290.5C 920.359,297.341 918.859,304.341 918,311.5C 915.531,313.652 912.698,315.152 909.5,316C 908.142,320.361 905.142,322.861 900.5,323.5C 899.571,324.689 899.238,326.022 899.5,327.5C 901.833,327.5 904.167,327.5 906.5,327.5C 906.471,330.656 904.804,332.322 901.5,332.5C 900.335,331.509 899.168,330.509 898,329.5C 897.5,329.833 897,330.167 896.5,330.5C 894.703,334.787 892.703,338.954 890.5,343C 886.224,344.523 882.224,345.856 878.5,347C 873.79,351.108 869.79,355.775 866.5,361C 858.799,366.522 851.466,372.522 844.5,379C 837.637,381.173 830.637,382.84 823.5,384C 818.633,387.265 813.633,390.265 808.5,393C 798.199,394.853 787.866,396.519 777.5,398C 776.594,399.699 776.261,401.533 776.5,403.5C 772.123,403.577 767.79,404.077 763.5,405C 733.673,418.621 702.34,424.621 669.5,423C 664.544,424.296 659.711,425.129 655,425.5C 614.698,424.941 575.198,418.941 536.5,407.5C 533.228,408.133 529.895,407.966 526.5,407C 524.739,404.059 522.072,402.392 518.5,402C 520.167,401.667 521.833,401.333 523.5,401C 522.5,400.833 521.5,400.667 520.5,400.5C 515.824,401.761 511.158,401.761 506.5,400.5C 504.728,401.36 503.395,402.693 502.5,404.5C 490.388,399.628 478.388,394.461 466.5,389C 456.514,387.335 446.514,385.835 436.5,384.5C 431.96,382.911 431.794,381.911 436,381.5C 444.396,382.073 452.729,382.739 461,383.5C 461.167,383.167 461.333,382.833 461.5,382.5C 460.335,381.416 459.002,380.583 457.5,380C 465.167,379.667 472.833,379.333 480.5,379C 479.167,378 477.833,377 476.5,376C 479.333,375.833 482.167,375.667 485,375.5C 502.841,375.961 520.674,377.294 538.5,379.5C 547.513,378.528 556.513,378.528 565.5,379.5C 572.379,378.007 579.379,377.173 586.5,377C 612.833,376.667 639.167,376.333 665.5,376C 669.552,374.899 673.719,374.399 678,374.5C 688.377,374.826 698.71,375.16 709,375.5C 716.448,373.856 723.948,372.356 731.5,371C 732.973,370.29 733.64,369.124 733.5,367.5C 752.264,366.083 771.097,364.75 790,363.5C 791.5,363.667 793,363.833 794.5,364C 791.833,364.333 789.167,364.667 786.5,365C 789.687,365.001 792.52,365.834 795,367.5C 801.083,364.348 807.583,362.181 814.5,361C 819.372,360.754 824.205,360.254 829,359.5C 829.945,359.905 830.612,360.572 831,361.5C 832.735,358.507 832.235,355.84 829.5,353.5C 824.72,354.731 819.887,355.731 815,356.5C 813.837,354.672 812.17,353.672 810,353.5C 805.236,354.922 800.403,355.422 795.5,355C 794.646,353.978 793.646,353.145 792.5,352.5C 786.839,353.243 781.172,354.076 775.5,355C 774.833,355.667 774.167,356.333 773.5,357C 768.663,357.467 763.83,357.967 759,358.5C 756.245,358.59 753.745,357.924 751.5,356.5C 748.61,357.685 745.776,357.685 743,356.5C 738.959,357.028 735.125,358.194 731.5,360C 722.634,360.533 713.801,361.367 705,362.5C 700.049,360.872 694.882,360.039 689.5,360C 688.226,358.779 686.726,357.946 685,357.5C 675.829,357.512 666.329,357.845 656.5,358.5C 655.006,358.291 653.839,357.624 653,356.5C 649.667,357.833 646.333,357.833 643,356.5C 642.5,357 642,357.5 641.5,358C 637.522,358.166 633.689,358.333 630,358.5C 628.289,358.561 626.956,357.894 626,356.5C 624.769,357.108 623.436,357.441 622,357.5C 601.549,355.472 581.215,354.472 561,354.5C 543.332,352.314 525.832,351.48 508.5,352C 507.109,350.98 505.609,350.147 504,349.5C 496.941,350.405 489.774,350.738 482.5,350.5C 477.312,349.923 472.146,349.256 467,348.5C 466.05,349.022 465.216,349.689 464.5,350.5C 463.5,349.167 462.5,349.167 461.5,350.5C 445.232,348.278 428.898,345.611 412.5,342.5C 410.617,342.876 409.117,343.876 408,345.5C 400.518,343.801 393.018,341.968 385.5,340C 383.873,337.246 382.373,334.412 381,331.5C 380.902,333.619 380.069,335.286 378.5,336.5C 375.947,335.195 373.28,334.195 370.5,333.5C 368.929,329.618 367.262,325.785 365.5,322C 362.45,321.321 359.45,320.488 356.5,319.5C 355.573,321.113 354.739,322.779 354,324.5C 353.617,323.944 353.117,323.611 352.5,323.5C 352.143,321.411 351.477,319.411 350.5,317.5C 347.912,316.806 345.579,315.64 343.5,314C 344.167,312 345.5,310.667 347.5,310C 346.196,309.196 345.529,308.029 345.5,306.5C 347.409,299.12 349.409,291.787 351.5,284.5C 350.91,283.201 349.91,282.368 348.5,282C 349.833,281 349.833,280 348.5,279C 346.167,278 343.833,277 341.5,276C 342.831,271.029 344.165,266.029 345.5,261C 342.918,259.429 340.585,257.596 338.5,255.5C 339.55,251.615 341.05,247.948 343,244.5C 346.073,245.617 349.24,245.784 352.5,245C 353.882,241.271 355.548,237.271 357.5,233C 360.553,232.821 363.553,232.321 366.5,231.5C 367.719,227.606 369.386,223.939 371.5,220.5C 382.101,220.028 382.101,218.528 371.5,216C 375.474,213.214 374.807,211.714 369.5,211.5C 368.438,210.575 368.438,209.575 369.5,208.5C 372.187,208.336 374.854,208.503 377.5,209C 375.875,209.853 375.542,210.853 376.5,212C 379.576,212.346 382.576,213.012 385.5,214C 384.5,215 383.5,216 382.5,217C 385.809,217.129 389.142,218.129 392.5,220C 391.051,221.117 389.384,221.784 387.5,222C 391.356,222.177 395.023,222.677 398.5,223.5C 396.396,223.201 394.396,223.534 392.5,224.5C 388.979,227.187 385.979,230.353 383.5,234C 390.779,235.493 398.113,236.66 405.5,237.5C 404.169,242.657 402.336,247.657 400,252.5C 398.333,253.167 396.667,253.833 395,254.5C 394.689,256.556 394.189,258.556 393.5,260.5C 394.263,261.719 395.263,262.719 396.5,263.5C 394.726,264.187 393.059,265.02 391.5,266C 393.907,267.908 393.907,269.908 391.5,272C 392.007,274.341 393.174,274.841 395,273.5C 395.667,276.167 396.333,276.167 397,273.5C 399.447,274.406 401.947,275.239 404.5,276C 403.919,276.893 403.585,277.893 403.5,279C 404.969,283.747 405.969,288.58 406.5,293.5C 404.761,293.594 402.761,293.761 400.5,294C 413.713,295.503 427.713,297.336 442.5,299.5C 445.672,306.336 448.672,313.17 451.5,320C 456.176,321.008 460.843,321.675 465.5,322C 467.915,320.535 468.915,318.368 468.5,315.5C 471.254,315.784 473.92,316.451 476.5,317.5C 479.588,322.675 482.421,328.008 485,333.5C 485.903,334.701 487.069,335.535 488.5,336C 491.343,336.446 494.176,336.946 497,337.5C 504.255,336.854 511.589,336.521 519,336.5C 523.448,337.371 527.948,338.204 532.5,339C 535.866,341.184 539.533,342.517 543.5,343C 598.533,346.395 653.533,346.228 708.5,342.5C 715.887,343.44 723.22,342.94 730.5,341C 732.609,339.859 734.442,338.359 736,336.5C 736.893,337.081 737.893,337.415 739,337.5C 745.767,336.144 752.601,335.311 759.5,335C 765.801,331.848 771.801,328.182 777.5,324C 783.47,323.025 789.47,322.192 795.5,321.5C 796.991,320.756 798.491,320.09 800,319.5C 802.908,320.036 805.741,320.202 808.5,320C 809.406,318.301 809.739,316.467 809.5,314.5C 813.136,314.406 816.636,313.739 820,312.5C 820.561,313.022 821.228,313.355 822,313.5C 826.086,311.227 830.419,309.56 835,308.5C 835.333,308.833 835.667,309.167 836,309.5C 841.258,305.453 846.425,301.287 851.5,297C 851.043,296.586 850.709,296.086 850.5,295.5C 856.481,294.229 862.481,293.062 868.5,292C 868.944,290.467 869.277,288.967 869.5,287.5C 873.238,286.317 876.905,284.984 880.5,283.5C 879.41,282.391 879.41,281.391 880.5,280.5C 883.673,279.79 886.673,278.623 889.5,277C 889.167,276.667 888.833,276.333 888.5,276C 889.776,274.788 891.276,273.955 893,273.5C 900.331,275.013 901.498,272.847 896.5,267C 897.071,265.795 897.738,264.628 898.5,263.5C 900.9,262.982 902.9,261.815 904.5,260C 902.02,255.395 899.02,251.062 895.5,247C 896.167,246.333 896.833,246.333 897.5,247C 898.787,248.41 899.954,249.91 901,251.5C 901.667,250.167 901.667,248.833 901,247.5C 898.447,245.271 895.614,244.938 892.5,246.5C 891.971,250.889 892.971,255.056 895.5,259C 893.527,259.495 891.527,259.662 889.5,259.5C 888.155,251.476 884.655,244.476 879,238.5C 880.126,240.95 879.459,242.95 877,244.5C 873.642,241.642 870.142,238.975 866.5,236.5C 870.035,235.924 873.202,234.591 876,232.5C 879.409,233.622 882.909,233.789 886.5,233C 886.957,232.586 887.291,232.086 887.5,231.5C 884.627,228.129 881.627,224.963 878.5,222C 880.911,220.417 883.578,219.417 886.5,219C 881.678,215.089 876.678,211.422 871.5,208C 873.788,207.178 876.122,206.511 878.5,206C 864.422,196.75 848.922,191.25 832,189.5C 817.481,189.637 802.981,189.637 788.5,189.5C 781.407,187.242 774.073,185.408 766.5,184C 769.33,182.233 772.33,182.067 775.5,183.5C 779.436,182.446 783.436,181.779 787.5,181.5C 793.847,182.597 800.18,182.597 806.5,181.5C 805.5,180.167 804.5,178.833 803.5,177.5C 799.217,176.508 794.884,176.174 790.5,176.5C 790.33,177.822 790.663,178.989 791.5,180C 786.672,180.629 782.005,179.962 777.5,178C 775.702,175.528 773.368,173.861 770.5,173C 788.439,174.121 806.439,174.788 824.5,175C 827.944,175.111 830.277,176.777 831.5,180C 837.811,181.065 844.144,181.398 850.5,181C 847.833,180.667 845.167,180.333 842.5,180C 841.007,178.844 841.174,178.01 843,177.5C 862.943,181.03 880.11,189.863 894.5,204C 893.167,205 891.833,206 890.5,207C 895.982,211.315 900.982,216.149 905.5,221.5C 904.167,222.5 902.833,223.5 901.5,224.5C 902.248,226.416 902.248,228.416 901.5,230.5C 904.777,230.216 907.943,230.549 911,231.5C 914.5,238.5 918,245.5 921.5,252.5C 921.957,253.298 922.624,253.631 923.5,253.5 Z"/></g>
<g><path style="opacity:1" fill="#3e525c" d="M 692.5,169.5 C 691.501,171.318 690.168,172.985 688.5,174.5C 687.452,173.617 686.285,172.95 685,172.5C 683.535,173.33 682.035,173.496 680.5,173C 681.696,172.346 681.696,171.846 680.5,171.5C 676.993,172.301 673.826,173.634 671,175.5C 666.486,173.859 661.986,173.026 657.5,173C 656.833,171.667 656.167,170.333 655.5,169C 637.579,167.115 619.912,165.615 602.5,164.5C 602.67,163.178 602.337,162.011 601.5,161C 595.833,160.333 590.167,160.333 584.5,161C 583.107,162.171 582.273,163.671 582,165.5C 577.293,164.585 572.459,164.252 567.5,164.5C 557.192,165.744 546.859,166.744 536.5,167.5C 544.813,168.332 553.147,168.832 561.5,169C 552.452,169.769 543.286,170.935 534,172.5C 533,171.167 532,171.167 531,172.5C 530.966,170.82 530.799,169.32 530.5,168C 527.667,167.833 524.833,167.667 522,167.5C 513.712,167.488 505.712,168.488 498,170.5C 496.431,169.878 494.764,169.544 493,169.5C 483.847,170.202 474.68,170.702 465.5,171C 461.728,171.611 461.728,172.611 465.5,174C 463.875,174.853 463.542,175.853 464.5,177C 463.809,178.067 463.309,179.234 463,180.5C 459.791,178.785 456.291,177.618 452.5,177C 455.244,176.197 457.911,175.197 460.5,174C 456.579,173.797 452.745,173.297 449,172.5C 447.132,173.672 445.298,173.505 443.5,172C 447.739,170.587 452.072,169.587 456.5,169C 448.1,169.875 439.767,169.542 431.5,168C 432.833,168.333 434.167,168.667 435.5,169C 433.283,170.275 430.949,171.275 428.5,172C 433.167,172.667 437.833,173.333 442.5,174C 439.702,175.453 436.702,176.453 433.5,177C 436.3,178.232 439.3,178.899 442.5,179C 428.506,184.988 414.506,190.988 400.5,197C 404.468,197.942 408.468,198.775 412.5,199.5C 411.5,200.333 410.5,201.167 409.5,202C 413.279,203.625 417.279,204.625 421.5,205C 420.167,206 418.833,207 417.5,208C 412.167,208.333 406.833,208.667 401.5,209C 399.392,209.36 397.392,210.027 395.5,211C 394.167,211.667 394.167,212.333 395.5,213C 399.219,213.388 402.886,214.055 406.5,215C 403.724,216.779 404.057,217.779 407.5,218C 404.456,218.359 404.122,219.026 406.5,220C 404.261,222.028 401.594,223.195 398.5,223.5C 395.023,222.677 391.356,222.177 387.5,222C 389.384,221.784 391.051,221.117 392.5,220C 389.142,218.129 385.809,217.129 382.5,217C 383.5,216 384.5,215 385.5,214C 382.576,213.012 379.576,212.346 376.5,212C 375.542,210.853 375.875,209.853 377.5,209C 374.854,208.503 372.187,208.336 369.5,208.5C 367.473,208.662 365.473,208.495 363.5,208C 368.5,207.667 373.5,207.333 378.5,207C 382.098,206.846 385.431,205.846 388.5,204C 385.899,203.08 383.232,202.413 380.5,202C 379.655,200.442 380.321,199.442 382.5,199C 380.269,197.853 377.935,196.853 375.5,196C 384.59,188.787 394.59,183.12 405.5,179C 401.079,178.583 396.746,177.75 392.5,176.5C 393.09,175.201 394.09,174.368 395.5,174C 393.122,173.489 390.788,172.822 388.5,172C 388.833,171.667 389.167,171.333 389.5,171C 396.422,169.482 403.089,167.149 409.5,164C 412.817,163.502 416.15,163.335 419.5,163.5C 419.735,164.097 420.235,164.43 421,164.5C 427.482,163.767 433.982,163.101 440.5,162.5C 442.044,162.79 443.377,163.456 444.5,164.5C 452.716,162.029 461.049,160.029 469.5,158.5C 469.962,160.019 471.462,161.019 474,161.5C 494.168,159.639 514.335,157.639 534.5,155.5C 535.833,155.667 537.167,155.833 538.5,156C 522.056,157.605 505.723,159.938 489.5,163C 490.667,163.167 491.833,163.333 493,163.5C 560.658,152.1 628.158,153.267 695.5,167C 694.058,167.377 693.058,168.21 692.5,169.5 Z"/></g>
<g><path style="opacity:1" fill="#405a67" d="M 914.5,200.5 C 915.609,200.557 916.609,200.89 917.5,201.5C 932.227,228.345 942.56,257.012 948.5,287.5C 946.613,284.767 945.613,285.267 945.5,289C 945.849,292.244 946.515,295.41 947.5,298.5C 946.105,301.62 944.772,304.787 943.5,308C 944.639,313.416 944.806,318.916 944,324.5C 942.842,333.756 941.509,343.089 940,352.5C 937.667,353.5 936,355.167 935,357.5C 934.338,362.503 932.338,366.836 929,370.5C 927.531,375.905 925.865,381.239 924,386.5C 923.667,385.833 923.333,385.167 923,384.5C 920.667,386.167 918.333,387.833 916,389.5C 911.69,398.787 906.857,407.787 901.5,416.5C 902.871,419.326 901.871,420.826 898.5,421C 893.128,427.694 886.128,431.861 877.5,433.5C 877.343,434.873 877.51,436.207 878,437.5C 881.135,436.529 884.301,436.029 887.5,436C 868.615,458.557 846.948,477.891 822.5,494C 817.197,496.316 811.864,498.649 806.5,501C 816.249,500.073 825.915,498.74 835.5,497C 808.73,514.213 779.73,526.213 748.5,533C 748.167,533.333 747.833,533.667 747.5,534C 748.5,534.167 749.5,534.333 750.5,534.5C 759.493,533.198 768.493,532.364 777.5,532C 769.384,535.112 761.051,537.446 752.5,539C 708.326,546.057 663.992,547.224 619.5,542.5C 619.67,541.178 619.337,540.011 618.5,539C 619.833,538.333 621.167,537.667 622.5,537C 586.162,533.132 550.496,525.799 515.5,515C 533.828,515.476 552.162,515.809 570.5,516C 508.324,505.511 451.658,482.178 400.5,446C 385.146,432.978 370.813,418.978 357.5,404C 354.242,402.533 350.908,401.367 347.5,400.5C 345.132,399.217 342.965,397.55 341,395.5C 337.829,389.158 334.662,382.824 331.5,376.5C 325.223,372.648 321.389,366.981 320,359.5C 317.828,358.415 315.828,357.081 314,355.5C 313.921,351.128 314.421,346.794 315.5,342.5C 314.187,340.482 314.853,339.315 317.5,339C 316.148,335.943 316.981,335.11 320,336.5C 321.257,336.15 321.591,335.483 321,334.5C 318.749,332.623 316.249,331.123 313.5,330C 310.49,325.992 307.157,322.326 303.5,319C 302.207,318.51 300.873,318.343 299.5,318.5C 299.675,316.379 299.341,314.379 298.5,312.5C 298.657,311.127 298.49,309.793 298,308.5C 297.658,310.619 296.825,310.953 295.5,309.5C 296.207,306.214 296.54,302.881 296.5,299.5C 301.382,266.995 311.382,236.328 326.5,207.5C 328.59,207.45 329.923,208.45 330.5,210.5C 327.854,214.614 325.687,218.948 324,223.5C 323.667,222.5 323.333,221.5 323,220.5C 322.053,225.357 323.886,228.524 328.5,230C 326.699,230.317 326.366,230.984 327.5,232C 326.283,233.648 325.45,235.481 325,237.5C 324.08,237.93 323.247,238.264 322.5,238.5C 322.987,239.446 323.32,240.446 323.5,241.5C 322.429,246.124 321.096,250.624 319.5,255C 320.167,255.333 320.833,255.667 321.5,256C 320.446,257.388 320.28,258.888 321,260.5C 322.41,261.787 323.91,262.954 325.5,264C 324.748,264.671 324.414,265.504 324.5,266.5C 320.643,267.716 319.31,270.216 320.5,274C 318.557,280.031 318.057,286.197 319,292.5C 320.255,293.211 321.421,294.044 322.5,295C 320.787,298.66 320.287,302.493 321,306.5C 325.453,308.263 329.953,309.929 334.5,311.5C 334.678,314.216 335.178,316.883 336,319.5C 338.427,320.781 340.927,321.781 343.5,322.5C 343.569,325.084 344.735,327.084 347,328.5C 349.055,328.152 351.055,328.819 353,330.5C 356.512,329.905 360.012,330.405 363.5,332C 361.231,332.758 359.064,332.591 357,331.5C 356.175,333.701 356.675,335.534 358.5,337C 360.974,337.113 362.974,338.113 364.5,340C 362.405,340.556 362.238,341.056 364,341.5C 365.338,340.494 366.671,339.494 368,338.5C 370.073,340.165 372.24,341.665 374.5,343C 377.767,343.453 380.934,344.287 384,345.5C 385.779,344.521 387.445,344.854 389,346.5C 389.772,346.355 390.439,346.022 391,345.5C 396.872,347.641 402.872,349.641 409,351.5C 411.065,353.874 410.899,356.04 408.5,358C 408.833,358.333 409.167,358.667 409.5,359C 401.48,359.435 393.48,359.101 385.5,358C 384.672,357.085 383.672,356.419 382.5,356C 377.202,355.89 372.035,355.057 367,353.5C 366.167,353.833 365.333,354.167 364.5,354.5C 363.966,356.614 362.966,358.448 361.5,360C 362,360.5 362.5,361 363,361.5C 363.674,360.422 364.674,359.755 366,359.5C 370.967,359.973 375.8,360.973 380.5,362.5C 383.941,367.737 387.608,372.737 391.5,377.5C 389.396,377.201 387.396,377.534 385.5,378.5C 385.709,379.086 386.043,379.586 386.5,380C 391.472,381.255 396.305,382.755 401,384.5C 403.565,383.678 405.732,384.511 407.5,387C 406.5,387.333 405.5,387.667 404.5,388C 405.766,388.309 406.933,388.809 408,389.5C 408.333,389.167 408.667,388.833 409,388.5C 410.5,390 412,391.5 413.5,393C 412.833,393.333 412.167,393.667 411.5,394C 418.866,395.734 426.2,397.567 433.5,399.5C 434.842,398.098 435.676,398.431 436,400.5C 436.333,399.833 436.667,399.167 437,398.5C 441.291,400.365 445.791,401.531 450.5,402C 457.627,405.656 464.961,409.656 472.5,414C 473.357,414.689 474.023,415.522 474.5,416.5C 476.473,417.331 478.473,417.498 480.5,417C 481.893,418.171 482.727,419.671 483,421.5C 483.333,420.833 483.667,420.167 484,419.5C 489.632,425.156 496.465,427.656 504.5,427C 504.014,424.973 504.014,422.807 504.5,420.5C 509.939,420.437 515.439,421.437 521,423.5C 521.333,423.167 521.667,422.833 522,422.5C 523.836,423.669 525.002,425.336 525.5,427.5C 529.58,429.42 533.746,430.087 538,429.5C 568.837,435.831 600.003,439.831 631.5,441.5C 661.734,441.944 692.067,439.444 722.5,434C 732.745,431.076 742.745,428.242 752.5,425.5C 754.055,425.722 755.389,426.389 756.5,427.5C 761.744,426.194 767.077,425.361 772.5,425C 775.877,423.95 777.877,421.617 778.5,418C 784.342,416.537 790.175,416.037 796,416.5C 803.35,414.121 810.85,412.288 818.5,411C 817.542,409.853 817.875,408.853 819.5,408C 825.399,404.769 830.732,400.769 835.5,396C 848.383,393.626 861.05,390.626 873.5,387C 872.833,386.667 872.167,386.333 871.5,386C 875.054,381.953 878.387,377.787 881.5,373.5C 883.465,372.708 885.465,372.041 887.5,371.5C 895.387,361.061 901.721,349.728 906.5,337.5C 908.564,335.022 910.564,335.022 912.5,337.5C 913.086,337.291 913.586,336.957 914,336.5C 914.873,331.768 915.873,326.768 917,321.5C 918.88,319.047 921.213,317.047 924,315.5C 924.099,310.654 926.099,306.987 930,304.5C 930.333,300.5 930.667,296.5 931,292.5C 932.022,291.646 932.855,290.646 933.5,289.5C 932.781,286.687 932.114,283.854 931.5,281C 932.992,278.342 934.992,276.176 937.5,274.5C 936.752,271.095 935.752,267.762 934.5,264.5C 935.04,263.252 935.707,262.085 936.5,261C 934.228,254.41 931.728,247.91 929,241.5C 928.257,239.559 928.424,237.726 929.5,236C 925.781,228.179 922.447,220.179 919.5,212C 916.592,208.628 914.925,204.794 914.5,200.5 Z"/></g>
<g><path style="opacity:1" fill="#435c6b" d="M 948.5,287.5 C 949.793,291.384 950.459,295.384 950.5,299.5C 950.438,304.076 951.105,308.409 952.5,312.5C 954.819,333.115 955.486,353.781 954.5,374.5C 953.111,379.269 952.444,384.269 952.5,389.5C 945.801,445.272 926.135,495.939 893.5,541.5C 891.764,543.903 889.764,545.903 887.5,547.5C 888.412,546.262 888.579,544.928 888,543.5C 884.521,546.65 881.354,550.15 878.5,554C 875.299,556.267 871.966,557.934 868.5,559C 869.928,556.815 871.595,554.815 873.5,553C 872.833,552.667 872.167,552.333 871.5,552C 887.5,533.681 901.5,514.015 913.5,493C 912.167,493 910.833,493 909.5,493C 911.5,490 913.5,487 915.5,484C 914.833,483.667 914.167,483.333 913.5,483C 916.96,475.081 920.96,467.415 925.5,460C 924.451,459.508 923.451,459.674 922.5,460.5C 922.167,460 921.833,459.5 921.5,459C 936.777,429.012 946.11,398.346 949.5,367C 951.004,365.509 951.837,363.676 952,361.5C 952.651,355.173 953.151,348.84 953.5,342.5C 952.34,313.21 951.507,313.21 951,342.5C 950.052,344.57 948.552,346.07 946.5,347C 946.833,347.333 947.167,347.667 947.5,348C 945.714,348.785 944.214,349.951 943,351.5C 940.769,357.475 939.769,363.475 940,369.5C 938.739,366.18 937.072,365.846 935,368.5C 934.143,372.596 932.976,376.596 931.5,380.5C 932.441,380.489 933.108,380.989 933.5,382C 932.472,385.221 931.306,388.388 930,391.5C 929.667,390.5 929.333,389.5 929,388.5C 926.667,390.167 924.333,391.833 922,393.5C 915.856,404.925 909.523,416.258 903,427.5C 902.275,425.842 901.108,425.342 899.5,426C 895.984,427.256 892.984,429.256 890.5,432C 893.257,432.584 895.923,432.25 898.5,431C 896.068,429.913 896.402,429.413 899.5,429.5C 899.509,431.308 899.009,432.975 898,434.5C 885.203,450.964 870.703,465.797 854.5,479C 859.046,477.827 863.713,477.16 868.5,477C 863.457,481.712 858.123,486.045 852.5,490C 855.742,490.586 858.575,489.753 861,487.5C 862.399,488.227 863.899,488.727 865.5,489C 860.833,493 856.167,497 851.5,501C 841.662,507.085 831.996,513.418 822.5,520C 829.505,518.999 836.505,517.999 843.5,517C 835.5,521.667 827.5,526.333 819.5,531C 823.809,530.508 828.143,530.175 832.5,530C 799.166,550.761 762.832,563.094 723.5,567C 688.844,570.101 654.178,570.267 619.5,567.5C 617.135,567.636 614.802,567.97 612.5,568.5C 608.933,567.239 605.266,566.405 601.5,566C 607.157,565.501 612.824,565.334 618.5,565.5C 618.694,561.738 616.86,560.071 613,560.5C 601.43,559.231 589.93,557.564 578.5,555.5C 576.931,556.714 576.098,558.381 576,560.5C 575.107,561.081 574.107,561.415 573,561.5C 556.095,558.066 539.262,554.233 522.5,550C 531.177,549.751 539.843,549.751 548.5,550C 531.478,546.578 514.811,541.911 498.5,536C 511.175,536.489 523.841,537.156 536.5,538C 521.054,533.962 505.887,529.129 491,523.5C 490.612,524.428 489.945,525.095 489,525.5C 483.571,524.057 478.071,523.557 472.5,524C 478.96,525.702 478.96,526.535 472.5,526.5C 472.859,528.766 472.192,530.599 470.5,532C 482.881,537.46 495.548,542.127 508.5,546C 498.737,545.748 489.07,544.582 479.5,542.5C 477.689,544.162 476.022,544.328 474.5,543C 475.167,542.333 475.833,541.667 476.5,541C 466.912,537.247 457.579,532.914 448.5,528C 455.049,528.131 461.549,528.965 468,530.5C 469.608,530.026 469.774,529.359 468.5,528.5C 449.264,519.884 430.931,509.717 413.5,498C 417.857,498.114 422.191,498.781 426.5,500C 440.481,508.824 455.148,516.324 470.5,522.5C 470.5,521.5 470.5,520.5 470.5,519.5C 473.841,520.005 477.174,520.172 480.5,520C 470.226,515.698 460.226,511.031 450.5,506C 460.54,505.577 470.373,506.744 480,509.5C 482.73,509.155 485.563,508.989 488.5,509C 487.692,506.912 486.692,504.912 485.5,503C 479.915,500.529 474.248,498.362 468.5,496.5C 468.72,499.4 468.054,502.067 466.5,504.5C 458.579,501.14 450.913,497.307 443.5,493C 450.581,492.615 457.581,492.949 464.5,494C 439.069,482.457 415.402,468.124 393.5,451C 384.667,442.167 375.833,433.333 367,424.5C 360.984,415.997 354.484,407.997 347.5,400.5C 350.908,401.367 354.242,402.533 357.5,404C 370.813,418.978 385.146,432.978 400.5,446C 451.658,482.178 508.324,505.511 570.5,516C 552.162,515.809 533.828,515.476 515.5,515C 550.496,525.799 586.162,533.132 622.5,537C 621.167,537.667 619.833,538.333 618.5,539C 619.337,540.011 619.67,541.178 619.5,542.5C 663.992,547.224 708.326,546.057 752.5,539C 761.051,537.446 769.384,535.112 777.5,532C 768.493,532.364 759.493,533.198 750.5,534.5C 749.5,534.333 748.5,534.167 747.5,534C 747.833,533.667 748.167,533.333 748.5,533C 779.73,526.213 808.73,514.213 835.5,497C 825.915,498.74 816.249,500.073 806.5,501C 811.864,498.649 817.197,496.316 822.5,494C 846.948,477.891 868.615,458.557 887.5,436C 884.301,436.029 881.135,436.529 878,437.5C 877.51,436.207 877.343,434.873 877.5,433.5C 886.128,431.861 893.128,427.694 898.5,421C 901.871,420.826 902.871,419.326 901.5,416.5C 906.857,407.787 911.69,398.787 916,389.5C 918.333,387.833 920.667,386.167 923,384.5C 923.333,385.167 923.667,385.833 924,386.5C 925.865,381.239 927.531,375.905 929,370.5C 932.338,366.836 934.338,362.503 935,357.5C 936,355.167 937.667,353.5 940,352.5C 941.509,343.089 942.842,333.756 944,324.5C 944.806,318.916 944.639,313.416 943.5,308C 944.772,304.787 946.105,301.62 947.5,298.5C 946.515,295.41 945.849,292.244 945.5,289C 945.613,285.267 946.613,284.767 948.5,287.5 Z"/></g>
<g><path style="opacity:0.154" fill="#161d21" d="M 296.5,299.5 C 296.54,302.881 296.207,306.214 295.5,309.5C 295.737,310.791 295.404,311.791 294.5,312.5C 294.438,307.924 295.105,303.591 296.5,299.5 Z"/></g>
<g><path style="opacity:1" fill="#455f6d" d="M 298.5,312.5 C 297.962,315.899 297.629,319.399 297.5,323C 299.186,331.469 300.686,339.969 302,348.5C 305.814,352.297 307.981,356.964 308.5,362.5C 305.735,370.051 307.569,376.384 314,381.5C 322.041,403.536 332.708,424.203 346,443.5C 353,451.833 360,460.167 367,468.5C 368.938,471.106 371.438,472.939 374.5,474C 381.61,476.389 388.61,479.056 395.5,482C 397.362,485.264 398.695,488.764 399.5,492.5C 397.085,492.373 394.751,492.207 392.5,492C 403.552,500.719 414.886,509.053 426.5,517C 430.007,519.254 433.673,521.254 437.5,523C 432.167,522.667 426.833,522.333 421.5,522C 429.036,526.601 436.703,530.934 444.5,535C 435.452,533.946 426.452,532.612 417.5,531C 448.027,551.633 481.027,567.3 516.5,578C 523.162,579.166 529.829,580.333 536.5,581.5C 538.85,581.708 540.516,582.875 541.5,585C 546.486,586.274 551.486,587.441 556.5,588.5C 558.217,587.332 558.884,585.665 558.5,583.5C 565.175,584.094 571.842,584.76 578.5,585.5C 578.756,587.937 579.423,590.271 580.5,592.5C 583.276,593.515 585.943,594.515 588.5,595.5C 584.486,595.334 580.486,595.501 576.5,596C 580.25,596.26 583.916,596.927 587.5,598C 579.093,598.545 570.759,598.045 562.5,596.5C 560.519,597.105 560.185,598.105 561.5,599.5C 556.03,601.054 550.53,601.388 545,600.5C 542.759,600.68 542.259,601.513 543.5,603C 574.883,606.175 606.216,610.009 637.5,614.5C 638.461,611.574 639.127,608.574 639.5,605.5C 645.425,605.808 651.259,605.475 657,604.5C 657.826,607.793 658.326,611.126 658.5,614.5C 688.601,616.374 718.601,614.207 748.5,608C 758.055,605.87 767.389,603.037 776.5,599.5C 777.347,601.061 777.014,602.561 775.5,604C 779.225,603.989 782.892,603.323 786.5,602C 796.719,598.036 806.886,593.869 817,589.5C 817.333,589.833 817.667,590.167 818,590.5C 818.465,589.069 819.299,587.903 820.5,587C 814.237,588.484 807.903,590.151 801.5,592C 799.875,594.82 797.875,595.153 795.5,593C 803.453,589.571 811.619,586.738 820,584.5C 821.169,583.991 822.002,583.158 822.5,582C 818.381,582.908 814.214,584.075 810,585.5C 808.989,585.108 808.489,584.441 808.5,583.5C 802.855,584.238 798.188,586.738 794.5,591C 785.836,593 777.169,595 768.5,597C 768.833,597.333 769.167,597.667 769.5,598C 758.278,601.548 747.278,604.548 736.5,607C 733.77,607.728 731.103,607.562 728.5,606.5C 725.079,608.14 721.412,609.14 717.5,609.5C 715.971,609.471 714.804,608.804 714,607.5C 714.633,605.662 714.466,603.829 713.5,602C 713.905,601.055 714.572,600.388 715.5,600C 724.415,598.662 733.248,597.162 742,595.5C 744.297,595.539 746.63,595.872 749,596.5C 751.192,594.765 753.692,593.598 756.5,593C 770.806,590.815 785.14,587.482 799.5,583C 803.565,578.453 808.565,575.12 814.5,573C 815.96,572.189 816.293,571.355 815.5,570.5C 811.886,571.82 808.22,572.987 804.5,574C 803.5,575 802.5,576 801.5,577C 787.946,580.578 774.279,583.245 760.5,585C 770.005,582.332 779.338,579.165 788.5,575.5C 786.946,576.895 787.279,577.561 789.5,577.5C 793.953,576.776 798.286,575.609 802.5,574C 804.532,570.646 806.532,567.313 808.5,564C 819.621,560.737 830.621,557.071 841.5,553C 859.396,539.767 875.229,524.6 889,507.5C 884.77,510.043 880.27,511.543 875.5,512C 879.167,508.333 882.833,504.667 886.5,501C 883.079,501.357 879.745,502.023 876.5,503C 884.737,493.853 892.737,484.52 900.5,475C 896.247,476.289 891.914,477.289 887.5,478C 892.066,473.524 896.399,468.857 900.5,464C 904.668,461.75 908.668,459.25 912.5,456.5C 922.868,439.429 931.368,421.429 938,402.5C 943.685,382.446 948.852,362.446 953.5,342.5C 953.151,348.84 952.651,355.173 952,361.5C 951.837,363.676 951.004,365.509 949.5,367C 946.11,398.346 936.777,429.012 921.5,459C 921.833,459.5 922.167,460 922.5,460.5C 923.451,459.674 924.451,459.508 925.5,460C 920.96,467.415 916.96,475.081 913.5,483C 914.167,483.333 914.833,483.667 915.5,484C 913.5,487 911.5,490 909.5,493C 910.833,493 912.167,493 913.5,493C 901.5,514.015 887.5,533.681 871.5,552C 872.167,552.333 872.833,552.667 873.5,553C 871.595,554.815 869.928,556.815 868.5,559C 871.966,557.934 875.299,556.267 878.5,554C 881.354,550.15 884.521,546.65 888,543.5C 888.579,544.928 888.412,546.262 887.5,547.5C 871.632,569.131 852.965,588.131 831.5,604.5C 829.973,604.427 828.973,605.094 828.5,606.5C 828.5,607.167 828.167,607.5 827.5,607.5C 825.973,607.427 824.973,608.094 824.5,609.5C 813.008,618.749 800.675,626.749 787.5,633.5C 785.545,632.677 783.545,632.51 781.5,633C 779.854,634.755 778.187,635.922 776.5,636.5C 774.549,636.773 773.049,636.107 772,634.5C 770.758,635.872 769.258,636.872 767.5,637.5C 765.851,637.925 764.017,637.925 762,637.5C 761.683,639.301 761.016,639.634 760,638.5C 757.957,640.967 755.79,640.967 753.5,638.5C 752.5,639 751.5,639.5 750.5,640C 751.672,640.419 752.672,641.085 753.5,642C 748.783,643.897 744.116,644.897 739.5,645C 737.099,645.795 734.932,646.962 733,648.5C 732.586,648.043 732.086,647.709 731.5,647.5C 714.364,651.476 697.031,654.309 679.5,656C 676.797,658.684 673.464,659.851 669.5,659.5C 666.911,659.149 664.411,658.482 662,657.5C 608.486,663.8 555.486,660.133 503,646.5C 501.437,647.102 501.604,647.935 503.5,649C 501.68,648.524 500.013,648.691 498.5,649.5C 497.162,647.887 495.495,647.387 493.5,648C 496.097,648.779 496.097,649.279 493.5,649.5C 493.167,649.5 492.833,649.5 492.5,649.5C 491.086,647.946 489.419,646.612 487.5,645.5C 488.5,644.667 489.5,643.833 490.5,643C 487.535,643.444 485.035,642.277 483,639.5C 474.68,637.451 466.513,634.284 458.5,630C 455.454,629.261 452.454,628.428 449.5,627.5C 447.628,626.489 445.628,625.655 443.5,625C 440.509,623.035 437.843,620.868 435.5,618.5C 437.03,619.067 438.53,619.733 440,620.5C 440.507,619.004 440.007,617.837 438.5,617C 439,616.833 439.5,616.667 440,616.5C 449.028,620.174 458.028,623.841 467,627.5C 468.008,627.018 469.175,626.852 470.5,627C 461.5,621.333 452.5,615.667 443.5,610C 446.437,610.623 449.437,610.957 452.5,611C 449.167,608.667 445.833,606.333 442.5,604C 446.889,604.468 451.223,605.134 455.5,606C 453.749,602.58 451.082,600.246 447.5,599C 448.833,599 450.167,599 451.5,599C 450.107,596.334 448.441,593.834 446.5,591.5C 447.376,590.749 448.376,590.249 449.5,590C 443.904,585.284 437.738,581.45 431,578.5C 429.271,580.277 427.105,580.444 424.5,579C 420.188,577.919 416.855,575.586 414.5,572C 406.891,569.577 399.558,566.577 392.5,563C 389.344,556.582 384.344,552.248 377.5,550C 380.244,550.019 382.911,550.686 385.5,552C 389.351,554.169 393.185,556.336 397,558.5C 397,557.167 397,555.833 397,554.5C 398.049,555.517 399.216,555.684 400.5,555C 397.937,554.237 397.937,553.737 400.5,553.5C 402.155,554.228 403.821,554.395 405.5,554C 396.611,547.714 388.278,540.714 380.5,533C 377.748,529.922 375.414,526.589 373.5,523C 371.167,522 368.833,521 366.5,520C 366.311,517.705 364.977,515.705 362.5,514C 365.188,514.007 367.688,514.84 370,516.5C 370.122,514.831 369.788,513.165 369,511.5C 364.833,507.333 360.667,503.167 356.5,499C 357.784,498.316 358.951,498.483 360,499.5C 360.667,498.833 360.667,498.167 360,497.5C 353.528,489.022 347.028,480.522 340.5,472C 342.911,472.052 345.244,472.385 347.5,473C 323.785,441.447 307.618,407.28 299,370.5C 297.615,369.449 296.615,368.116 296,366.5C 295.841,361.084 295.174,355.75 294,350.5C 293.722,351.416 293.222,352.082 292.5,352.5C 292.088,339.095 292.755,325.762 294.5,312.5C 295.404,311.791 295.737,310.791 295.5,309.5C 296.825,310.953 297.658,310.619 298,308.5C 298.49,309.793 298.657,311.127 298.5,312.5 Z"/></g>
<g><path style="opacity:0.175" fill="#171e22" d="M 950.5,299.5 C 951.895,303.591 952.562,307.924 952.5,312.5C 951.105,308.409 950.438,304.076 950.5,299.5 Z"/></g>
<g><path style="opacity:1" fill="#435e6c" d="M 298.5,312.5 C 299.341,314.379 299.675,316.379 299.5,318.5C 300.873,318.343 302.207,318.51 303.5,319C 307.157,322.326 310.49,325.992 313.5,330C 316.249,331.123 318.749,332.623 321,334.5C 321.591,335.483 321.257,336.15 320,336.5C 316.981,335.11 316.148,335.943 317.5,339C 314.853,339.315 314.187,340.482 315.5,342.5C 314.421,346.794 313.921,351.128 314,355.5C 315.828,357.081 317.828,358.415 320,359.5C 321.389,366.981 325.223,372.648 331.5,376.5C 334.662,382.824 337.829,389.158 341,395.5C 342.965,397.55 345.132,399.217 347.5,400.5C 354.484,407.997 360.984,415.997 367,424.5C 375.833,433.333 384.667,442.167 393.5,451C 415.402,468.124 439.069,482.457 464.5,494C 457.581,492.949 450.581,492.615 443.5,493C 450.913,497.307 458.579,501.14 466.5,504.5C 468.054,502.067 468.72,499.4 468.5,496.5C 474.248,498.362 479.915,500.529 485.5,503C 486.692,504.912 487.692,506.912 488.5,509C 485.563,508.989 482.73,509.155 480,509.5C 470.373,506.744 460.54,505.577 450.5,506C 460.226,511.031 470.226,515.698 480.5,520C 477.174,520.172 473.841,520.005 470.5,519.5C 470.5,520.5 470.5,521.5 470.5,522.5C 455.148,516.324 440.481,508.824 426.5,500C 422.191,498.781 417.857,498.114 413.5,498C 430.931,509.717 449.264,519.884 468.5,528.5C 469.774,529.359 469.608,530.026 468,530.5C 461.549,528.965 455.049,528.131 448.5,528C 457.579,532.914 466.912,537.247 476.5,541C 475.833,541.667 475.167,542.333 474.5,543C 476.022,544.328 477.689,544.162 479.5,542.5C 489.07,544.582 498.737,545.748 508.5,546C 495.548,542.127 482.881,537.46 470.5,532C 472.192,530.599 472.859,528.766 472.5,526.5C 478.96,526.535 478.96,525.702 472.5,524C 478.071,523.557 483.571,524.057 489,525.5C 489.945,525.095 490.612,524.428 491,523.5C 505.887,529.129 521.054,533.962 536.5,538C 523.841,537.156 511.175,536.489 498.5,536C 514.811,541.911 531.478,546.578 548.5,550C 539.843,549.751 531.177,549.751 522.5,550C 539.262,554.233 556.095,558.066 573,561.5C 574.107,561.415 575.107,561.081 576,560.5C 576.098,558.381 576.931,556.714 578.5,555.5C 589.93,557.564 601.43,559.231 613,560.5C 616.86,560.071 618.694,561.738 618.5,565.5C 612.824,565.334 607.157,565.501 601.5,566C 605.266,566.405 608.933,567.239 612.5,568.5C 614.802,567.97 617.135,567.636 619.5,567.5C 654.178,570.267 688.844,570.101 723.5,567C 762.832,563.094 799.166,550.761 832.5,530C 828.143,530.175 823.809,530.508 819.5,531C 827.5,526.333 835.5,521.667 843.5,517C 836.505,517.999 829.505,518.999 822.5,520C 831.996,513.418 841.662,507.085 851.5,501C 856.167,497 860.833,493 865.5,489C 863.899,488.727 862.399,488.227 861,487.5C 858.575,489.753 855.742,490.586 852.5,490C 858.123,486.045 863.457,481.712 868.5,477C 863.713,477.16 859.046,477.827 854.5,479C 870.703,465.797 885.203,450.964 898,434.5C 899.009,432.975 899.509,431.308 899.5,429.5C 896.402,429.413 896.068,429.913 898.5,431C 895.923,432.25 893.257,432.584 890.5,432C 892.984,429.256 895.984,427.256 899.5,426C 901.108,425.342 902.275,425.842 903,427.5C 909.523,416.258 915.856,404.925 922,393.5C 924.333,391.833 926.667,390.167 929,388.5C 929.333,389.5 929.667,390.5 930,391.5C 931.306,388.388 932.472,385.221 933.5,382C 933.108,380.989 932.441,380.489 931.5,380.5C 932.976,376.596 934.143,372.596 935,368.5C 937.072,365.846 938.739,366.18 940,369.5C 939.769,363.475 940.769,357.475 943,351.5C 944.214,349.951 945.714,348.785 947.5,348C 947.167,347.667 946.833,347.333 946.5,347C 948.552,346.07 950.052,344.57 951,342.5C 951.507,313.21 952.34,313.21 953.5,342.5C 948.852,362.446 943.685,382.446 938,402.5C 931.368,421.429 922.868,439.429 912.5,456.5C 908.668,459.25 904.668,461.75 900.5,464C 896.399,468.857 892.066,473.524 887.5,478C 891.914,477.289 896.247,476.289 900.5,475C 892.737,484.52 884.737,493.853 876.5,503C 879.745,502.023 883.079,501.357 886.5,501C 882.833,504.667 879.167,508.333 875.5,512C 880.27,511.543 884.77,510.043 889,507.5C 875.229,524.6 859.396,539.767 841.5,553C 830.621,557.071 819.621,560.737 808.5,564C 806.532,567.313 804.532,570.646 802.5,574C 798.286,575.609 793.953,576.776 789.5,577.5C 787.279,577.561 786.946,576.895 788.5,575.5C 788.829,573.009 789.829,570.843 791.5,569C 787.549,568.623 783.882,569.457 780.5,571.5C 778.758,569.027 776.925,569.027 775,571.5C 743.701,577.465 711.867,581.632 679.5,584C 678.833,584.333 678.167,584.667 677.5,585C 680.068,587.602 680.734,590.602 679.5,594C 673.167,594.333 666.833,594.667 660.5,595C 659.344,596.615 658.011,596.615 656.5,595C 658.652,592.576 659.985,589.743 660.5,586.5C 665.802,585.671 671.136,585.171 676.5,585C 657.507,585.111 638.507,585.277 619.5,585.5C 619.665,587.827 620.331,589.993 621.5,592C 629.937,592.289 638.27,593.289 646.5,595C 637.833,595.333 629.167,595.667 620.5,596C 619.833,597.333 619.167,598.667 618.5,600C 602.541,600.505 602.541,601.339 618.5,602.5C 620.059,604.131 622.059,604.964 624.5,605C 622.273,605.121 620.44,605.954 619,607.5C 614.669,605.561 610.003,604.561 605,604.5C 603.236,604.544 601.569,604.878 600,605.5C 599.517,604.552 599.351,603.552 599.5,602.5C 589.105,603.223 578.772,603.056 568.5,602C 578.5,601.667 588.5,601.333 598.5,601C 590.833,600.187 591.166,599.521 599.5,599C 596.347,596.571 592.68,595.404 588.5,595.5C 585.943,594.515 583.276,593.515 580.5,592.5C 579.423,590.271 578.756,587.937 578.5,585.5C 571.842,584.76 565.175,584.094 558.5,583.5C 558.884,585.665 558.217,587.332 556.5,588.5C 551.486,587.441 546.486,586.274 541.5,585C 540.516,582.875 538.85,581.708 536.5,581.5C 529.829,580.333 523.162,579.166 516.5,578C 481.027,567.3 448.027,551.633 417.5,531C 426.452,532.612 435.452,533.946 444.5,535C 436.703,530.934 429.036,526.601 421.5,522C 426.833,522.333 432.167,522.667 437.5,523C 433.673,521.254 430.007,519.254 426.5,517C 414.886,509.053 403.552,500.719 392.5,492C 394.751,492.207 397.085,492.373 399.5,492.5C 398.695,488.764 397.362,485.264 395.5,482C 388.61,479.056 381.61,476.389 374.5,474C 371.438,472.939 368.938,471.106 367,468.5C 360,460.167 353,451.833 346,443.5C 332.708,424.203 322.041,403.536 314,381.5C 307.569,376.384 305.735,370.051 308.5,362.5C 307.981,356.964 305.814,352.297 302,348.5C 300.686,339.969 299.186,331.469 297.5,323C 297.629,319.399 297.962,315.899 298.5,312.5 Z"/></g>
<g><path style="opacity:1" fill="#405664" d="M 324.5,266.5 C 324.011,267.736 324.011,269.236 324.5,271C 327.711,272.801 331.044,274.301 334.5,275.5C 334.215,277.288 334.548,278.955 335.5,280.5C 337.497,280.986 338.831,282.153 339.5,284C 338.266,288.831 338.266,293.664 339.5,298.5C 343.838,298.622 344.172,298.955 340.5,299.5C 341.269,303.743 342.269,307.909 343.5,312C 341.833,312.333 340.167,312.667 338.5,313C 340.333,314.167 342.167,315.333 344,316.5C 344.594,321.534 347.427,323.868 352.5,323.5C 353.117,323.611 353.617,323.944 354,324.5C 354.739,322.779 355.573,321.113 356.5,319.5C 359.45,320.488 362.45,321.321 365.5,322C 367.262,325.785 368.929,329.618 370.5,333.5C 373.28,334.195 375.947,335.195 378.5,336.5C 380.069,335.286 380.902,333.619 381,331.5C 382.373,334.412 383.873,337.246 385.5,340C 393.018,341.968 400.518,343.801 408,345.5C 409.117,343.876 410.617,342.876 412.5,342.5C 428.898,345.611 445.232,348.278 461.5,350.5C 462.5,349.167 463.5,349.167 464.5,350.5C 465.216,349.689 466.05,349.022 467,348.5C 472.146,349.256 477.312,349.923 482.5,350.5C 489.774,350.738 496.941,350.405 504,349.5C 505.609,350.147 507.109,350.98 508.5,352C 525.832,351.48 543.332,352.314 561,354.5C 581.215,354.472 601.549,355.472 622,357.5C 623.436,357.441 624.769,357.108 626,356.5C 626.956,357.894 628.289,358.561 630,358.5C 633.689,358.333 637.522,358.166 641.5,358C 642,357.5 642.5,357 643,356.5C 646.333,357.833 649.667,357.833 653,356.5C 653.839,357.624 655.006,358.291 656.5,358.5C 666.329,357.845 675.829,357.512 685,357.5C 686.726,357.946 688.226,358.779 689.5,360C 694.882,360.039 700.049,360.872 705,362.5C 713.801,361.367 722.634,360.533 731.5,360C 735.125,358.194 738.959,357.028 743,356.5C 745.776,357.685 748.61,357.685 751.5,356.5C 753.745,357.924 756.245,358.59 759,358.5C 763.83,357.967 768.663,357.467 773.5,357C 774.167,356.333 774.833,355.667 775.5,355C 781.172,354.076 786.839,353.243 792.5,352.5C 793.646,353.145 794.646,353.978 795.5,355C 800.403,355.422 805.236,354.922 810,353.5C 812.17,353.672 813.837,354.672 815,356.5C 819.887,355.731 824.72,354.731 829.5,353.5C 832.235,355.84 832.735,358.507 831,361.5C 830.612,360.572 829.945,359.905 829,359.5C 824.205,360.254 819.372,360.754 814.5,361C 807.583,362.181 801.083,364.348 795,367.5C 792.52,365.834 789.687,365.001 786.5,365C 789.167,364.667 791.833,364.333 794.5,364C 793,363.833 791.5,363.667 790,363.5C 771.097,364.75 752.264,366.083 733.5,367.5C 733.64,369.124 732.973,370.29 731.5,371C 723.948,372.356 716.448,373.856 709,375.5C 698.71,375.16 688.377,374.826 678,374.5C 673.719,374.399 669.552,374.899 665.5,376C 639.167,376.333 612.833,376.667 586.5,377C 579.379,377.173 572.379,378.007 565.5,379.5C 556.513,378.528 547.513,378.528 538.5,379.5C 520.674,377.294 502.841,375.961 485,375.5C 482.167,375.667 479.333,375.833 476.5,376C 477.833,377 479.167,378 480.5,379C 472.833,379.333 465.167,379.667 457.5,380C 459.002,380.583 460.335,381.416 461.5,382.5C 461.333,382.833 461.167,383.167 461,383.5C 452.729,382.739 444.396,382.073 436,381.5C 431.794,381.911 431.96,382.911 436.5,384.5C 443.086,389.804 450.086,394.638 457.5,399C 453.185,400.895 448.852,400.895 444.5,399C 437.109,393.277 429.443,387.944 421.5,383C 411.201,382.434 401.201,380.601 391.5,377.5C 387.608,372.737 383.941,367.737 380.5,362.5C 375.8,360.973 370.967,359.973 366,359.5C 364.674,359.755 363.674,360.422 363,361.5C 362.5,361 362,360.5 361.5,360C 362.966,358.448 363.966,356.614 364.5,354.5C 365.333,354.167 366.167,353.833 367,353.5C 372.035,355.057 377.202,355.89 382.5,356C 383.672,356.419 384.672,357.085 385.5,358C 393.48,359.101 401.48,359.435 409.5,359C 409.167,358.667 408.833,358.333 408.5,358C 410.899,356.04 411.065,353.874 409,351.5C 402.872,349.641 396.872,347.641 391,345.5C 390.439,346.022 389.772,346.355 389,346.5C 387.445,344.854 385.779,344.521 384,345.5C 380.934,344.287 377.767,343.453 374.5,343C 372.24,341.665 370.073,340.165 368,338.5C 366.671,339.494 365.338,340.494 364,341.5C 362.238,341.056 362.405,340.556 364.5,340C 362.974,338.113 360.974,337.113 358.5,337C 356.675,335.534 356.175,333.701 357,331.5C 359.064,332.591 361.231,332.758 363.5,332C 360.012,330.405 356.512,329.905 353,330.5C 351.055,328.819 349.055,328.152 347,328.5C 344.735,327.084 343.569,325.084 343.5,322.5C 340.927,321.781 338.427,320.781 336,319.5C 335.178,316.883 334.678,314.216 334.5,311.5C 329.953,309.929 325.453,308.263 321,306.5C 320.287,302.493 320.787,298.66 322.5,295C 321.421,294.044 320.255,293.211 319,292.5C 318.057,286.197 318.557,280.031 320.5,274C 319.31,270.216 320.643,267.716 324.5,266.5 Z"/></g>
<g><path style="opacity:1" fill="#476170" d="M 435.5,618.5 C 434.402,617.603 434.402,616.77 435.5,616C 426.87,608.386 417.87,601.053 408.5,594C 409.624,593.751 410.624,593.251 411.5,592.5C 410.018,590.517 408.351,588.684 406.5,587C 392.722,579.563 381.056,569.563 371.5,557C 372.738,557.077 373.738,556.911 374.5,556.5C 368.656,548.717 360.989,542.383 351.5,537.5C 349.336,535.178 347.669,532.511 346.5,529.5C 344.746,521.335 346.413,520.168 351.5,526C 354.249,527.123 356.749,528.623 359,530.5C 359.167,530.167 359.333,529.833 359.5,529.5C 356.509,526.339 353.675,523.005 351,519.5C 351.96,516.755 350.793,515.255 347.5,515C 345.892,511.728 343.892,508.728 341.5,506C 342.167,505.667 342.833,505.333 343.5,505C 338.128,497.758 333.128,490.258 328.5,482.5C 329.565,480.147 329.398,477.814 328,475.5C 324.579,469.658 321.412,463.658 318.5,457.5C 319.167,457.167 319.833,456.833 320.5,456.5C 318.833,453.167 317.167,449.833 315.5,446.5C 316.262,446.089 317.262,445.923 318.5,446C 309.074,424.463 300.741,403.296 293.5,382.5C 292.509,375.181 291.842,367.681 291.5,360C 291.503,357.31 291.836,354.81 292.5,352.5C 293.222,352.082 293.722,351.416 294,350.5C 295.174,355.75 295.841,361.084 296,366.5C 296.615,368.116 297.615,369.449 299,370.5C 307.618,407.28 323.785,441.447 347.5,473C 345.244,472.385 342.911,472.052 340.5,472C 347.028,480.522 353.528,489.022 360,497.5C 360.667,498.167 360.667,498.833 360,499.5C 358.951,498.483 357.784,498.316 356.5,499C 360.667,503.167 364.833,507.333 369,511.5C 369.788,513.165 370.122,514.831 370,516.5C 367.688,514.84 365.188,514.007 362.5,514C 364.977,515.705 366.311,517.705 366.5,520C 368.833,521 371.167,522 373.5,523C 375.414,526.589 377.748,529.922 380.5,533C 388.278,540.714 396.611,547.714 405.5,554C 403.821,554.395 402.155,554.228 400.5,553.5C 397.937,553.737 397.937,554.237 400.5,555C 399.216,555.684 398.049,555.517 397,554.5C 397,555.833 397,557.167 397,558.5C 393.185,556.336 389.351,554.169 385.5,552C 382.911,550.686 380.244,550.019 377.5,550C 384.344,552.248 389.344,556.582 392.5,563C 399.558,566.577 406.891,569.577 414.5,572C 416.855,575.586 420.188,577.919 424.5,579C 427.105,580.444 429.271,580.277 431,578.5C 437.738,581.45 443.904,585.284 449.5,590C 448.376,590.249 447.376,590.749 446.5,591.5C 448.441,593.834 450.107,596.334 451.5,599C 450.167,599 448.833,599 447.5,599C 451.082,600.246 453.749,602.58 455.5,606C 451.223,605.134 446.889,604.468 442.5,604C 445.833,606.333 449.167,608.667 452.5,611C 449.437,610.957 446.437,610.623 443.5,610C 452.5,615.667 461.5,621.333 470.5,627C 469.175,626.852 468.008,627.018 467,627.5C 458.028,623.841 449.028,620.174 440,616.5C 439.5,616.667 439,616.833 438.5,617C 440.007,617.837 440.507,619.004 440,620.5C 438.53,619.733 437.03,619.067 435.5,618.5 Z"/></g>
<g><path style="opacity:0.218" fill="#1b2429" d="M 954.5,374.5 C 954.556,379.731 953.889,384.731 952.5,389.5C 952.444,384.269 953.111,379.269 954.5,374.5 Z"/></g>
<g><path style="opacity:0.998" fill="#435c6a" d="M 293.5,382.5 C 300.741,403.296 309.074,424.463 318.5,446C 317.262,445.923 316.262,446.089 315.5,446.5C 317.167,449.833 318.833,453.167 320.5,456.5C 319.833,456.833 319.167,457.167 318.5,457.5C 321.412,463.658 324.579,469.658 328,475.5C 329.398,477.814 329.565,480.147 328.5,482.5C 333.128,490.258 338.128,497.758 343.5,505C 342.833,505.333 342.167,505.667 341.5,506C 343.892,508.728 345.892,511.728 347.5,515C 350.793,515.255 351.96,516.755 351,519.5C 353.675,523.005 356.509,526.339 359.5,529.5C 359.333,529.833 359.167,530.167 359,530.5C 356.749,528.623 354.249,527.123 351.5,526C 346.413,520.168 344.746,521.335 346.5,529.5C 332.8,511.129 322.133,491.129 314.5,469.5C 314.448,466.654 313.448,464.32 311.5,462.5C 301.444,436.868 295.444,410.201 293.5,382.5 Z"/></g>
<g><path style="opacity:1" fill="#3e5764" d="M 914.5,200.5 C 914.925,204.794 916.592,208.628 919.5,212C 922.447,220.179 925.781,228.179 929.5,236C 928.424,237.726 928.257,239.559 929,241.5C 931.728,247.91 934.228,254.41 936.5,261C 935.707,262.085 935.04,263.252 934.5,264.5C 935.752,267.762 936.752,271.095 937.5,274.5C 934.992,276.176 932.992,278.342 931.5,281C 932.114,283.854 932.781,286.687 933.5,289.5C 932.855,290.646 932.022,291.646 931,292.5C 930.667,296.5 930.333,300.5 930,304.5C 926.099,306.987 924.099,310.654 924,315.5C 921.213,317.047 918.88,319.047 917,321.5C 915.873,326.768 914.873,331.768 914,336.5C 913.586,336.957 913.086,337.291 912.5,337.5C 910.564,335.022 908.564,335.022 906.5,337.5C 901.721,349.728 895.387,361.061 887.5,371.5C 885.465,372.041 883.465,372.708 881.5,373.5C 878.387,377.787 875.054,381.953 871.5,386C 872.167,386.333 872.833,386.667 873.5,387C 861.05,390.626 848.383,393.626 835.5,396C 830.732,400.769 825.399,404.769 819.5,408C 817.875,408.853 817.542,409.853 818.5,411C 810.85,412.288 803.35,414.121 796,416.5C 790.175,416.037 784.342,416.537 778.5,418C 777.877,421.617 775.877,423.95 772.5,425C 767.077,425.361 761.744,426.194 756.5,427.5C 755.389,426.389 754.055,425.722 752.5,425.5C 742.745,428.242 732.745,431.076 722.5,434C 692.067,439.444 661.734,441.944 631.5,441.5C 600.003,439.831 568.837,435.831 538,429.5C 533.746,430.087 529.58,429.42 525.5,427.5C 525.002,425.336 523.836,423.669 522,422.5C 521.667,422.833 521.333,423.167 521,423.5C 515.439,421.437 509.939,420.437 504.5,420.5C 504.014,422.807 504.014,424.973 504.5,427C 496.465,427.656 489.632,425.156 484,419.5C 483.667,420.167 483.333,420.833 483,421.5C 482.727,419.671 481.893,418.171 480.5,417C 478.473,417.498 476.473,417.331 474.5,416.5C 474.023,415.522 473.357,414.689 472.5,414C 464.961,409.656 457.627,405.656 450.5,402C 445.791,401.531 441.291,400.365 437,398.5C 436.667,399.167 436.333,399.833 436,400.5C 435.676,398.431 434.842,398.098 433.5,399.5C 426.2,397.567 418.866,395.734 411.5,394C 412.167,393.667 412.833,393.333 413.5,393C 412,391.5 410.5,390 409,388.5C 408.667,388.833 408.333,389.167 408,389.5C 406.933,388.809 405.766,388.309 404.5,388C 405.5,387.667 406.5,387.333 407.5,387C 405.732,384.511 403.565,383.678 401,384.5C 396.305,382.755 391.472,381.255 386.5,380C 386.043,379.586 385.709,379.086 385.5,378.5C 387.396,377.534 389.396,377.201 391.5,377.5C 401.201,380.601 411.201,382.434 421.5,383C 429.443,387.944 437.109,393.277 444.5,399C 448.852,400.895 453.185,400.895 457.5,399C 450.086,394.638 443.086,389.804 436.5,384.5C 446.514,385.835 456.514,387.335 466.5,389C 478.388,394.461 490.388,399.628 502.5,404.5C 503.395,402.693 504.728,401.36 506.5,400.5C 511.158,401.761 515.824,401.761 520.5,400.5C 521.5,400.667 522.5,400.833 523.5,401C 521.833,401.333 520.167,401.667 518.5,402C 522.072,402.392 524.739,404.059 526.5,407C 529.895,407.966 533.228,408.133 536.5,407.5C 575.198,418.941 614.698,424.941 655,425.5C 659.711,425.129 664.544,424.296 669.5,423C 702.34,424.621 733.673,418.621 763.5,405C 767.79,404.077 772.123,403.577 776.5,403.5C 776.261,401.533 776.594,399.699 777.5,398C 787.866,396.519 798.199,394.853 808.5,393C 813.633,390.265 818.633,387.265 823.5,384C 830.637,382.84 837.637,381.173 844.5,379C 851.466,372.522 858.799,366.522 866.5,361C 869.79,355.775 873.79,351.108 878.5,347C 882.224,345.856 886.224,344.523 890.5,343C 892.703,338.954 894.703,334.787 896.5,330.5C 897,330.167 897.5,329.833 898,329.5C 899.168,330.509 900.335,331.509 901.5,332.5C 904.804,332.322 906.471,330.656 906.5,327.5C 904.167,327.5 901.833,327.5 899.5,327.5C 899.238,326.022 899.571,324.689 900.5,323.5C 905.142,322.861 908.142,320.361 909.5,316C 912.698,315.152 915.531,313.652 918,311.5C 918.859,304.341 920.359,297.341 922.5,290.5C 921.868,287.341 921.868,284.341 922.5,281.5C 920.41,281.55 919.077,280.55 918.5,278.5C 920.167,277.167 921.833,275.833 923.5,274.5C 923.167,273.833 922.833,273.167 922.5,272.5C 924.318,271.176 925.318,269.343 925.5,267C 924.477,264.132 924.477,261.298 925.5,258.5C 925.098,256.7 924.431,255.033 923.5,253.5C 922.965,249.563 921.632,245.896 919.5,242.5C 920.5,241.667 921.5,240.833 922.5,240C 919.796,235.925 918.796,231.592 919.5,227C 917.926,223.44 916.26,219.94 914.5,216.5C 914.833,215.833 915.167,215.167 915.5,214.5C 913.102,211.429 911.102,208.095 909.5,204.5C 909.833,203.833 910.167,203.167 910.5,202.5C 903.167,192.167 895.833,181.833 888.5,171.5C 888.667,171.167 888.833,170.833 889,170.5C 894.365,176.199 900.031,181.533 906,186.5C 908.092,191.697 910.926,196.364 914.5,200.5 Z"/></g>
<g><path style="opacity:0.165" fill="#161c1f" d="M 311.5,462.5 C 313.448,464.32 314.448,466.654 314.5,469.5C 312.935,467.491 311.935,465.157 311.5,462.5 Z"/></g>
<g><path style="opacity:0.998" fill="#415764" d="M 351.5,537.5 C 360.989,542.383 368.656,548.717 374.5,556.5C 373.738,556.911 372.738,557.077 371.5,557C 381.056,569.563 392.722,579.563 406.5,587C 408.351,588.684 410.018,590.517 411.5,592.5C 410.624,593.251 409.624,593.751 408.5,594C 417.87,601.053 426.87,608.386 435.5,616C 434.402,616.77 434.402,617.603 435.5,618.5C 433.742,618.123 432.075,617.456 430.5,616.5C 426.456,613.114 422.456,609.781 418.5,606.5C 417.415,604.413 415.749,603.08 413.5,602.5C 408.08,599.445 403.413,595.445 399.5,590.5C 397.431,587.427 394.764,585.094 391.5,583.5C 385.538,578.706 380.038,573.372 375,567.5C 366.908,557.621 359.075,547.621 351.5,537.5 Z"/></g>
<g><path style="opacity:1" fill="#445c6c" d="M 788.5,575.5 C 779.338,579.165 770.005,582.332 760.5,585C 774.279,583.245 787.946,580.578 801.5,577C 802.5,576 803.5,575 804.5,574C 808.22,572.987 811.886,571.82 815.5,570.5C 816.293,571.355 815.96,572.189 814.5,573C 808.565,575.12 803.565,578.453 799.5,583C 785.14,587.482 770.806,590.815 756.5,593C 753.692,593.598 751.192,594.765 749,596.5C 746.63,595.872 744.297,595.539 742,595.5C 733.248,597.162 724.415,598.662 715.5,600C 714.572,600.388 713.905,601.055 713.5,602C 714.466,603.829 714.633,605.662 714,607.5C 714.804,608.804 715.971,609.471 717.5,609.5C 721.412,609.14 725.079,608.14 728.5,606.5C 731.103,607.562 733.77,607.728 736.5,607C 747.278,604.548 758.278,601.548 769.5,598C 769.167,597.667 768.833,597.333 768.5,597C 777.169,595 785.836,593 794.5,591C 798.188,586.738 802.855,584.238 808.5,583.5C 808.489,584.441 808.989,585.108 810,585.5C 814.214,584.075 818.381,582.908 822.5,582C 822.002,583.158 821.169,583.991 820,584.5C 811.619,586.738 803.453,589.571 795.5,593C 797.875,595.153 799.875,594.82 801.5,592C 807.903,590.151 814.237,588.484 820.5,587C 819.299,587.903 818.465,589.069 818,590.5C 817.667,590.167 817.333,589.833 817,589.5C 806.886,593.869 796.719,598.036 786.5,602C 782.892,603.323 779.225,603.989 775.5,604C 777.014,602.561 777.347,601.061 776.5,599.5C 767.389,603.037 758.055,605.87 748.5,608C 718.601,614.207 688.601,616.374 658.5,614.5C 658.326,611.126 657.826,607.793 657,604.5C 651.259,605.475 645.425,605.808 639.5,605.5C 639.127,608.574 638.461,611.574 637.5,614.5C 606.216,610.009 574.883,606.175 543.5,603C 542.259,601.513 542.759,600.68 545,600.5C 550.53,601.388 556.03,601.054 561.5,599.5C 560.185,598.105 560.519,597.105 562.5,596.5C 570.759,598.045 579.093,598.545 587.5,598C 583.916,596.927 580.25,596.26 576.5,596C 580.486,595.501 584.486,595.334 588.5,595.5C 592.68,595.404 596.347,596.571 599.5,599C 591.166,599.521 590.833,600.187 598.5,601C 588.5,601.333 578.5,601.667 568.5,602C 578.772,603.056 589.105,603.223 599.5,602.5C 599.351,603.552 599.517,604.552 600,605.5C 601.569,604.878 603.236,604.544 605,604.5C 610.003,604.561 614.669,605.561 619,607.5C 620.44,605.954 622.273,605.121 624.5,605C 622.059,604.964 620.059,604.131 618.5,602.5C 602.541,601.339 602.541,600.505 618.5,600C 619.167,598.667 619.833,597.333 620.5,596C 629.167,595.667 637.833,595.333 646.5,595C 638.27,593.289 629.937,592.289 621.5,592C 620.331,589.993 619.665,587.827 619.5,585.5C 638.507,585.277 657.507,585.111 676.5,585C 671.136,585.171 665.802,585.671 660.5,586.5C 659.985,589.743 658.652,592.576 656.5,595C 658.011,596.615 659.344,596.615 660.5,595C 666.833,594.667 673.167,594.333 679.5,594C 680.734,590.602 680.068,587.602 677.5,585C 678.167,584.667 678.833,584.333 679.5,584C 711.867,581.632 743.701,577.465 775,571.5C 776.925,569.027 778.758,569.027 780.5,571.5C 783.882,569.457 787.549,568.623 791.5,569C 789.829,570.843 788.829,573.009 788.5,575.5 Z"/></g>
<g><path style="opacity:0.565" fill="#1f262b" d="M 391.5,583.5 C 394.764,585.094 397.431,587.427 399.5,590.5C 396.236,588.906 393.569,586.573 391.5,583.5 Z"/></g>
<g><path style="opacity:0.337" fill="#1d2429" d="M 413.5,602.5 C 415.749,603.08 417.415,604.413 418.5,606.5C 416.251,605.92 414.585,604.587 413.5,602.5 Z"/></g>
<g><path style="opacity:0.004" fill="#0d1113" d="M 831.5,604.5 C 831.027,605.906 830.027,606.573 828.5,606.5C 828.973,605.094 829.973,604.427 831.5,604.5 Z"/></g>
<g><path style="opacity:0.004" fill="#0c0f11" d="M 827.5,607.5 C 827.027,608.906 826.027,609.573 824.5,609.5C 824.973,608.094 825.973,607.427 827.5,607.5 Z"/></g>
<g><path style="opacity:0.992" fill="#3d4d56" d="M 449.5,627.5 C 452.454,628.428 455.454,629.261 458.5,630C 466.513,634.284 474.68,637.451 483,639.5C 485.035,642.277 487.535,643.444 490.5,643C 489.5,643.833 488.5,644.667 487.5,645.5C 489.419,646.612 491.086,647.946 492.5,649.5C 477.212,643.842 462.879,636.508 449.5,627.5 Z"/></g>
<g><path style="opacity:0.999" fill="#44565f" d="M 787.5,633.5 C 758.155,650.844 726.488,662.511 692.5,668.5C 689.848,668.41 687.515,669.076 685.5,670.5C 684.167,670.5 682.833,670.5 681.5,670.5C 679.833,670.5 678.167,670.5 676.5,670.5C 668.716,670.075 661.05,670.742 653.5,672.5C 652.106,672.379 650.772,672.046 649.5,671.5C 645.356,673.118 641.022,673.951 636.5,674C 635.944,674.383 635.611,674.883 635.5,675.5C 625.5,675.5 615.5,675.5 605.5,675.5C 598.389,673.977 591.056,673.31 583.5,673.5C 581.585,673.784 579.919,673.451 578.5,672.5C 591.614,671.188 605.614,670.355 620.5,670C 626.841,668.888 633.174,667.721 639.5,666.5C 644.544,666.008 649.544,666.508 654.5,668C 656.167,667.667 657.833,667.333 659.5,667C 656.7,665.768 653.7,665.101 650.5,665C 688.253,662.653 725.253,655.653 761.5,644C 764.511,643.232 767.011,641.732 769,639.5C 770.544,642.264 771.711,642.097 772.5,639C 774.167,638.667 775.833,638.333 777.5,638C 776.944,637.617 776.611,637.117 776.5,636.5C 778.187,635.922 779.854,634.755 781.5,633C 783.545,632.51 785.545,632.677 787.5,633.5 Z"/></g>
<g><path style="opacity:0.986" fill="#3b4950" d="M 498.5,649.5 C 502.67,651.44 506.837,653.44 511,655.5C 511.772,655.355 512.439,655.022 513,654.5C 518.243,656.853 523.743,658.353 529.5,659C 528.167,659.333 526.833,659.667 525.5,660C 527.175,660.985 528.842,661.819 530.5,662.5C 517.515,659.843 505.182,655.509 493.5,649.5C 496.097,649.279 496.097,648.779 493.5,648C 495.495,647.387 497.162,647.887 498.5,649.5 Z"/></g>
<g><path style="opacity:1" fill="#495d68" d="M 776.5,636.5 C 776.611,637.117 776.944,637.617 777.5,638C 775.833,638.333 774.167,638.667 772.5,639C 771.711,642.097 770.544,642.264 769,639.5C 767.011,641.732 764.511,643.232 761.5,644C 725.253,655.653 688.253,662.653 650.5,665C 653.7,665.101 656.7,665.768 659.5,667C 657.833,667.333 656.167,667.667 654.5,668C 649.544,666.508 644.544,666.008 639.5,666.5C 633.174,667.721 626.841,668.888 620.5,670C 605.614,670.355 591.614,671.188 578.5,672.5C 561.943,671.08 545.943,667.747 530.5,662.5C 528.842,661.819 527.175,660.985 525.5,660C 526.833,659.667 528.167,659.333 529.5,659C 523.743,658.353 518.243,656.853 513,654.5C 512.439,655.022 511.772,655.355 511,655.5C 506.837,653.44 502.67,651.44 498.5,649.5C 500.013,648.691 501.68,648.524 503.5,649C 501.604,647.935 501.437,647.102 503,646.5C 555.486,660.133 608.486,663.8 662,657.5C 664.411,658.482 666.911,659.149 669.5,659.5C 673.464,659.851 676.797,658.684 679.5,656C 697.031,654.309 714.364,651.476 731.5,647.5C 732.086,647.709 732.586,648.043 733,648.5C 734.932,646.962 737.099,645.795 739.5,645C 744.116,644.897 748.783,643.897 753.5,642C 752.672,641.085 751.672,640.419 750.5,640C 751.5,639.5 752.5,639 753.5,638.5C 755.79,640.967 757.957,640.967 760,638.5C 761.016,639.634 761.683,639.301 762,637.5C 764.017,637.925 765.851,637.925 767.5,637.5C 769.258,636.872 770.758,635.872 772,634.5C 773.049,636.107 774.549,636.773 776.5,636.5 Z"/></g>
<g><path style="opacity:0.016" fill="#111315" d="M 692.5,668.5 C 690.485,669.924 688.152,670.59 685.5,670.5C 687.515,669.076 689.848,668.41 692.5,668.5 Z"/></g>
<g><path style="opacity:0.014" fill="#0e1012" d="M 676.5,670.5 C 678.167,670.5 679.833,670.5 681.5,670.5C 678.781,671.913 675.781,672.58 672.5,672.5C 673.833,671.833 675.167,671.167 676.5,670.5 Z"/></g>
<g><path style="opacity:0.972" fill="#3c494e" d="M 676.5,670.5 C 675.167,671.167 673.833,671.833 672.5,672.5C 660.265,674.547 647.932,675.547 635.5,675.5C 635.611,674.883 635.944,674.383 636.5,674C 641.022,673.951 645.356,673.118 649.5,671.5C 650.772,672.046 652.106,672.379 653.5,672.5C 661.05,670.742 668.716,670.075 676.5,670.5 Z"/></g>
<g><path style="opacity:0.22" fill="#1d2224" d="M 583.5,673.5 C 591.056,673.31 598.389,673.977 605.5,675.5C 597.972,675.374 590.639,674.707 583.5,673.5 Z"/></g>
</svg>
